<?xml version="1.0" encoding="UTF-8"?><svg xmlns="http://www.w3.org/2000/svg" viewBox="0 0 1920 1080"><g id="BG"><rect x=".5" y=".5" width="1919" height="1079" fill="#24273a" stroke-width="0"/><path d="M1919,1v1078H1V1h1918M1920,0H0v1080h1920V0h0Z" fill="#000" stroke-width="0"/></g><g id="Layer_2"><path d="M30.00000000060118,257.89814434707932l-.00000000060118,13.36516983215188c-.00000000013188,2.92301928845518,2.25216589362208,5.36745244073427,5.1708825411888,5.58767385884858l19.96913213545304,2.89938257295762c1.25096286324606.10097238076196,2.32896085450557.89108125982784,2.80807289410313,2.04642822115238l6.47446265559665,15.6226893389794c.48340665639626,1.15964156582777.26802014975237,2.48687105700265-.53712214990901,3.431126732763l-11.94721414102423,16.05400204164107c-1.8976633081229,2.22367081064294-1.77788939627499,5.52966391449081.29755793375534,7.60992443979558l9.4544185719933,9.45009690369807c2.06523532138635,2.07006493751032,5.38679358127592,2.19467403475755,7.60511068252163.29219702281625l16.04975338294662-11.94717993895574c.94371745389162-.80459907127261,2.27578628629726-1.02052588469269,3.4263010131217-.53603876507987l15.63186421934097,6.46908406309922c1.15535026863745.48448711961282,1.94546140941475,1.56731755299188,2.04643407911408,2.81773591171623l2.89455532927423,19.96423944321577c.22989313189737,2.91816736887267,2.65930212274452,5.17568687551466,5.58714892893477,5.17568687564562l13.3705845588247.00000000060027c2.92732227284159.00000000013097,5.3572557972393-2.25750311467164,5.58714892939952-5.17568687514176l2.8993908728844-19.96423944295748c.09667805301251-1.25041835871707.88678919388622-2.33324879202337,2.04213946256732-2.81773591153433l15.63186421992305-6.46908406169314c1.15535026868019-.48448711950914,2.47774801743799-.26856030597082,3.43113655488651.53603876538546l16.04491784005859,11.94717994039638c2.21831710107654,1.90247701214139,5.53450708997934,1.77786791519429,7.6094134951818-.29219702213231l9.45012395604135-9.45009690285042c2.07060359257139-2.08026052511741,2.19522124236391-5.38623723733326.29756613027257-7.60992443976647l-11.94237040193184-16.05400204271427c-.81051876640686-.94425567583312-1.02590527293432-2.27148516702619-.54195769141825-3.43112673281212l6.4744708528342-15.62268933839732c.46944095607159-1.15534696128088,1.56194557284562-1.94545584025036,2.80323735247202-2.04642822090136l19.97826229432576-2.89938257116228c2.91334837658997-.22022141785237,5.16603880391267-2.66467096155066,5.16603880404364-5.58767385838473l.00000000059936-13.36516983215552c.00000000013097-2.92783842480458-2.2521495019555-5.36207598929286-5.1660388035416-5.59249299519979l-19.97825409823236-2.89938257295762c-1.24128358378221-.10097238076014-2.33379639631949-.88678665532098-2.8032373522874-2.04642822115238l-6.47447085143085-15.62268933897758c-.48394758141148-1.15051143335222-.26802014975055-2.4777409245271.54195769172384-3.42199660028746l11.94237040337612-16.05346111817198c1.89711418727256-2.2236790064544,1.77250473361164-5.53985950228525-.29756612959045-7.60992443979558l-9.4501239551937-9.45009690369625c-2.07490640501419-2.07059766516977-5.3910963939079-2.19950956273169-7.6094134951536-.29702435498075l-16.04490964529759,11.94180348751615c-.95338853752037.8153519741536-2.27578628629726,1.02590233613046-3.43113655493653.54679166795722l-15.63186421934188-6.47874692323057c-1.15480934362222-.47427514020092-1.94544501774817-1.56194110155229-2.0367629954826-2.80806485577159l-2.90422641290479-19.96423944321759c-.22505759008436-2.92301109265281-2.6598266560959-5.17515414785521-5.58714892893659-5.175154147988l-13.37058455882288-.00000000059845c-2.9230276560429-.00000000013097-5.3572557972393,2.25214305485133-5.58714892940225,5.17515414748414l-2.89455533106502,19.9642394429593c-.1009726698112,1.23645269826557-.89108381068581,2.33378971548882-2.04643407936783,2.80806485558787l-15.6270286781064,6.47874692182631c-1.1505147268681.47911066806955-2.48258355925554.26856030597082-3.42684193809055-.54679166826463l-16.05404799867119-11.94180348895861c-2.21831710107472-1.90732073592335-5.53933443595997-1.77304058302798-7.60511068254982.29702435429681l-9.45441857284004,9.4500969028486c-2.0705953967381,2.07006493732661-2.19520485069552,5.38570450967745-.29755793444019,7.60992443976829l11.94721413958177,16.04916651474014c.81964892501946.94855028033817,1.02106973112041,2.271485167028.5371221496016,3.42629120484162l-6.47446265699728,15.62268933839732c-.47911203970307,1.15910064231684-1.55711003103261,1.94543944862926-2.80807289428503,2.04105176945814l-19.96913213571497,2.90421809913823c-2.91871664758764.23041700564499-5.17086614989148,2.66465456992955-5.17143985837447,5.59303391820504ZM90.4073376088445,264.82621035644024c.00000000037289-8.28805562773414,3.227407217777-16.08343321187385,9.08764410445019-21.94367009802045,5.86506818750149-5.87042356111306,13.65454994719039-9.08764410285221,21.9479609490636-9.08764410247932,8.28803925044394.00000000037289,16.08772406210119,3.21722054281054,21.94796094824596,9.0876441044511,5.86076095945918,5.86076095998214,9.09247540368233,13.65561447110122,9.09247540330944,21.94365372154607-.00000000037198,8.29287055127133-3.23223851860439,16.08290913856217-9.09247540528031,21.95279224907608-5.86023688667137,5.85592965862816-13.65992169861784,9.08335325262487-21.94796094906178,9.08335325225198-8.29287055127224-.00000000037289-16.08236868796303-3.22742359506992-21.94796094824778-9.08335325422377-5.86077733674665-5.8698831110396-9.0876604801424-13.65992169861966-9.08764410247932-21.95277587260171Z" fill="#363a4f" stroke-width="0"/><path d="M212.24750376765769,220.47413177995168c2.15412145504433.77600517686915,4.54328978978901-.24362857986853,5.49155131279713-2.33657266458613l7.43100742735442-13.94702379676346c.40677915249307-.89513359107514,1.27830487871779-1.47900857910463,2.25983686818836-1.52730521005469l13.23435369875187-.62251720545464c.98153608379107-.05688652004937,1.90081799035852.46043934631416,2.38917242896332,1.30298545621008l8.6518894284236,13.06638410887535c1.13501586577604,1.98721229448165,3.61005443117938,2.77717092324747,5.692795463724,1.79563074522775l9.47081948554387-4.45259235210688c2.07737542260202-.97670887718959,3.04495805461556-3.38520241515653,2.24051780654008-5.53019353057061l-4.54328774194346-14.996177621073c-.34560178209176-.91445060577644-.15347978198861-1.94857826509906.51196639797854-2.67627862220434l8.91484730716184-9.79656789613182c.65578767263469-.72770035710528,1.67059422298826-1.02446505760054,2.60919723855841-.76580212439694l15.49901982036863,3.16946436239232c2.20724529254767.60265974088179,4.51538186245398-.59406985147871,5.29084249439893-2.75355486930493l3.54779999865059-9.85827752864861c.77599750001445-2.14499930398961-.23397979655329-4.54383024038907-2.32691901926046-5.4824291617424l-13.9572227546978-7.44496906788481c-.88547303658106-.40194785166386-1.48437623621248-1.2638109762338-1.52247800354871-2.25017426652994l-.62251515829394-13.23381324815091c-.05259157549881-.97670478296459.45507987785186-1.89598668953113,1.30728244792044-2.38004618358354l13.06155076088635-8.66154793575879c1.99204871321217-1.12964820867091,2.77233936652374-3.61005033685615,1.79563432776104-5.68796416289661l-4.4531302437581-9.4713537946609c-.98153506011386-2.07737542260111-3.39002552734019-3.05408020566938-5.53018943624829-2.24051780653826l-14.99617762107209,4.54865335188697c-.91928395376726.34452906953629-1.94858031226067.14328491837659-2.67627862220343-.51250275425809l-9.8013951026378-8.92450786165682c-.72770035710528-.65578767263287-1.01963785109456-1.67113057926508-.76097082356955-2.60919723855659l3.15980176073754-15.49418954312023c.6128546044938-2.21153921351834-.5838749878676-4.51484550617715-2.74336000569474-5.29084275029527l-9.85345032214354-3.54780025454602c-2.15465371699975-.77599750001355-4.54865335257.23505314884824-5.49208766907304,2.32691901926228l-7.43583463386312,13.95185458579908c-.39712473948111.8811801391912-1.27830487871779,1.48491259249022-2.25500966168056,1.52784566065566l-13.23381734247505.62734441196153c-.9772411392396.04722596555257-1.90082208468084-.4642020289084-2.38487748441094-1.31211170159077l-8.65671663493231-13.06208711716135c-1.13447950949649-1.99634212239107-3.61488573200495-2.77716938787671-5.69279546372309-1.79992773693994l-9.47081539122155,4.45742365293518c-2.08274103254644.97241137368837-3.04925504632411,3.38090132912475-2.24051985369988,5.53072579252694l4.54436250166145,14.99617762107118c.35365122059011.91928395376817.15294752003319,1.94321470231625-.51250275425809,2.67144936853765l-8.91592820836377,9.79494449716913c-.66490982368941.72823671338119-1.66576701648228,1.02500550819968-2.61402853938489.75667997334131l-15.48936336019597-3.15497045990924c-2.21154023709914-.6080233036646-4.51968192490858.5887062886959-5.2999697633586,2.74819130652213l-3.54350530999727,9.8588179792514c-.77546472626727,2.14499520966456.23504687941659,4.54812109061277,2.32691825157599,5.48189280546285l13.9572268490183,7.44549723551609c.88654370197764.40248830226483,1.47041869000805,1.26917863333983,1.52301435982827,2.25071471713272l.62251720545646,13.23381734247232c.05312793177654.97670068864136-.45937482240242,1.90081389603802-1.30728449508388,2.38916833463918l-13.06155280804796,8.66154793576061c-1.9920435953054,1.13018865926824-2.78146177346935,3.60093228012011-1.79563074522594,5.68367331266745l4.45260054075243,9.47511443009535c.97724113914501,2.07790973171905,3.39002552734109,3.04495600745213,5.53072579252876,2.23568855286976l15.00529977212591-4.54328978910235c.90479619276539-.34452906953447,1.94911871570002-.14811621920489,2.66715647114961.50767145342797l9.80085874635915,8.91967860799014c.72286905627698.66061897346299,1.01481064458767,1.6705983173124.7615112741687,2.61885984021501l-3.16516532352034,15.48453205936676c-.60749104170827,2.21207249905456.58494770042398,4.52020599821844,2.74872356847936,5.29567072448481l9.85397848977482,3.55208701045194ZM209.60880284214636,161.52624302005552c-2.76268520897975-5.8849174639854-3.07393562306243-12.48733223273848-.87581657558985-18.60676431416505,2.20670893657007-6.11889572514701,6.65984173992547-11.01261859768601,12.53938745247979-13.77046841151605,5.87954571255796-2.77716682849859,12.48679178213843-3.08359822472084,18.60568750728635-.88064378209856,6.1146048749215,2.20188173006864,11.01261859768874,6.64535193176562,13.77959056257168,12.53456024597835,2.76804877176619,5.87954571255614,3.07447607366703,12.4867917821357.87688928814987,18.60569160160776-2.20724529285144,6.11943208142657-6.65071549454933,11.0126145033646-12.53509660225609,13.78012282452801-5.88491336966217,2.7675083211634-12.49645847811553,3.07393562306424-18.61105925871561.87634883754617-6.11352806804098-2.20724938717285-11.00241963975259-6.65984173992547-13.77958237392613-12.53884700188064Z" fill="#363a4f" stroke-width="0"/><path d="M296.90991269447841,573.84435917122391l-19.9691321355831-2.90421810003318c-1.25096286324879-.09561232088527-2.32896085454377-.88195112724497-2.80807289419408-2.04105176958547l-6.47446265629696-15.62268933868836c-.48394758146605-1.15480603783362-.282526775306-2.47774092451436.53712214975531-3.42629120481433l11.94721414030209-16.04916651420626c1.89764691635628-2.22421993000535,1.77303746254711-5.53985950236347-.29755793409731-7.60992443978284l-9.45441857241622-9.45009690327061c-2.06577624649617-2.07006493741937-5.38679358137506-2.20434509046208-7.60511068253618-.2970243546406l-16.05404799920689,11.94180348823647c-.94425837887229.81535197419726-2.27632721126884,1.02590233623596-3.4268419381151.54679166811184l-15.62702867781536-6.47874692252844c-1.1553502686611-.47427514014998-1.9454614094866-1.5716121574078-2.04643407924232-2.80806485567882l-2.89455533016917-19.96423944308663c-.22989313203107-2.92301109264554-2.66412127312742-5.17515414773879-5.58714892916851-5.17515414773879h-13.37058455882379c-2.92732227284068,0-5.36209133895409,2.25214305509326-5.58714892916851,5.17515414773879l-2.90422641380064,19.96423944308663c-.09131797779173,1.24612375421566-.8819536519668,2.33378971552884-2.03676299560902,2.80806485567882l-15.63186421963201,6.47874692252844c-1.155350268662.47911066812412-2.47774801742889.26856030608542-3.43113655491379-.54679166811184l-16.04490964476099-11.94180348823647c-2.21831710116112-1.90248520784917-5.53450709005847-1.7735733104364-7.60941349516725.2970243546406l-9.45012395561753,9.45009690327061c-2.07007086329486,2.07006493741937-2.19468031710585,5.38624543324477-.29756612993242,7.60992443978284l11.94237040265489,16.05346111870949c.80997784143165.94425567579674,1.02590527303528,2.27148516698071.54195769157013,3.4219966003111l-6.47447085213298,15.62268933868836c-.46944095601884,1.15964156580594-1.56195376859068,1.94545584032312-2.80323735237744,2.04642822102687l-19.97825409836332,2.89938257206086c-2.9138893015961.23041700577596-5.16603880379262,2.66465457015875-5.16603880379262,5.59249299496514v13.36516983215552c0,2.92300289683408,2.25269042721266,5.36745244063422,5.16603880379262,5.58767385861574l19.9782622941957,2.8993825720645c1.24129177962095.10097238070375,2.33379639636041.89108125972052,2.80323735238017,2.04642822102323l6.47447085213207,15.62268933868836c.48394758146333,1.15964156580594.26856107487856,2.48687105699355-.54195769157195,3.43112673279029l-11.94237040265307,16.05400204217221c-1.89765511218957,2.22368720234954-1.7730374625462,5.52966391457448.29756612993242,7.60992443978466l9.45012395561571,9.45009690327424c2.0749064051106,2.07006493741574,5.39109639400704,2.19467403451563,7.60941349516906.29219702247428l16.0449178405961-11.94717993967788c.95338853748308-.80459907131444,2.27578628625088-1.02052588479637,3.43113655491015-.53603876523266l15.63186421963292,6.46908406239527c1.15535026865928.48448711956371,1.94546140948478,1.56731755290457,2.0421394624409,2.81773591162346l2.89939087198672,19.96423944308845c.22989313202925,2.91818376048104,2.659826656326,5.1756868753946,5.58714892916669,5.1756868753946h13.37058455882561c2.92784680618934,0,5.35725579713835-2.25751950653284,5.5871489291676-5.1756868753946l2.89455533017099-19.96423944308845c.10097266975572-1.25041835871889.89108381058031-2.33324879205975,2.04643407923959-2.81773591162346l15.63186421963201-6.46908406239527c1.15051472684536-.48448711956371,2.48258355924099-.26856030608178,3.42630101309805.53603876523266l16.04975338240911,11.94717993967788c2.21831710116112,1.90247701204135,5.53987536105524,1.77786791494145,7.60511068253436-.29219702247428l9.45441857241804-9.45009690327424c2.07544733012401-2.08026052521018,2.19522124212017-5.38625362905441.2975579340964-7.60992443978466l-11.947214140303-16.05400204217221c-.80514229961773-.94425567579674-1.02052880620249-2.27148516698435-.5371221497544-3.43112673279029l6.47446265629878-15.62268933868836c.4791120396485-1.15534696130271,1.55711003094348-1.94545584031948,2.80807289419317-2.04642822102323l19.9691321355831-2.8993825720645c2.91871664757855-.22022141798152,5.17088254144073-2.66465457016238,5.17088254144073-5.58767385861574v-13.36516983215552c-.00057370835111-2.92837934827185-2.25272321054672-5.36261691265827-5.17143985812527-5.59303391843423ZM232.58637084058319,608.31823496850484c-5.8655922605476,5.85592965889373-13.6550903973839,9.08335325323787-21.94796094865524,9.08335325323787-8.28803925044394,0-16.0877240622458-3.22742359434415-21.94796094865433-9.08335325323787-5.86023688641126-5.86988311077585-9.09247540429533-13.65992169821402-9.09247540429533-21.95279224948536,0-8.28803925044485,3.23171444457421-16.08289276141659,9.09247540429533-21.9436537211368,5.86023688640853-5.87042356137681,13.65992169821038-9.08764410346339,21.94796094865433-9.08764410346339,8.29341100187321,0,16.0828927614175,3.21722054208658,21.94796094865524,9.08764410346339,5.86023688641035,5.86023688640853,9.08764410346521,13.65561447069194,9.08764410346521,21.94367009842972.0000163772911,8.29285417397841-3.2268667664548,16.08289276141659-9.08764410346521,21.95277587219243Z" fill="#363a4f" stroke-width="0"/><path d="M129.68782727716189,538.4612935043433c2.16377586808721-.77546472617178,3.35621461032406-3.08359822528109,2.74872356871401-5.29567072436294l-3.16516532282367-15.48453205950864c-.25329937037714-.94826152291535.03864221798085-1.9582408667502.76151127428602-2.61885984018045l9.80085874676024-8.91967860754812c.71803775547778-.65578767260195,1.7623602784206-.85220052288787,2.66715647117235-.50767145330974l15.00529977192127,4.54328978977719c2.14070026515128.80926745467696,4.55348465339102-.15777882094881,5.53072579262971-2.23568855262238l4.45260054117716-9.47511442989708c.98583102833891-2.08274103250005.19641285028501-4.5534846533883-1.79563074497128-5.68367331274749l-13.0615528076587-8.66154793634632c-.84790967265872-.48835443864118-1.36041242679676-1.41246764605967-1.30728449497656-2.38916833469739l.62251720605036-13.23381734244686c.05259566986479-.98153608378925.6364706579343-1.84822641483697,1.52301435992922-2.2507147170636l13.95722684935299-7.44549723489035c2.09187137220306-.93377171475368,3.10238297799424-3.33689759565823,2.32691825182246-5.48189280535735l-3.54350530955435-9.85881797940965c-.78028783835362-2.15948501786261-3.08842952610939-3.35621461032497-5.29996976323582-2.74819130676042l-15.48936336033603,3.15497045921438c-.94826152291625.26832553481472-1.94911871569548-.02844326004742-2.61402853935215-.75667997345954l-8.91592820792266-9.79494449756749c-.66545027426037-.72823466625232-.8661539747709-1.7521654148095-.51250275413986-2.6714493685613l4.54436250233448-14.99617762086928c.80873519272245-2.1498244633658-.15777882094881-4.55831441884584-2.24051985344977-5.53072579262516l-9.47081539102328-4.45742365336264c-2.07790973167357-.97724165102954-4.55831595421841-.19641438565486-5.69279546380494,1.79992773668528l-8.65671663551711,13.06208711677391c-.48405539976829.84790967265872-1.40763634523137,1.35933766707967-2.38487748447005,1.31211170148163l-13.23381734244595-.62734441255634c-.97670478296186-.04293306820728-1.85788492217216-.64666552154631-2.25500966161417-1.5278456607557l-7.43583463323466-13.95185458613378c-.94343431640937-2.09186587045588-3.33743395193505-3.10291651942498-5.49208766896936-2.32691901950784l-9.85345032230362,3.547800254104c-2.1594850178617.77599724402171-3.35621461032497,3.07930353662596-2.74336000593121,5.29084275017158l3.15980176004086,15.49418954326211c.25866702748317.93806665930242-.03327046655158,1.9534095659219-.76097082368506,2.60919723852385l-9.80139510303889,8.92450786121663c-.72769830997277.65578767260013-1.75699466847527.85703182371435-2.67627862222707.51250275413804l-14.99617762086655-4.54865335256c-2.14016390887264-.81356239922934-4.54865437614262.16314238373161-5.53018943635016,2.24051780628724l-4.45313024418192,9.47135379446445c-.97670503885638,2.07791382599498-.19641438565668,4.55831595421478,1.79563432750456,5.68796416297482l13.06155076049617,8.6615479363445c.85220257004858.48405949409062,1.35987402335741,1.40334140068262,1.30728244781403,2.38004618364357l-.62251515888693,13.23381324812362c-.03810176738079.98636329029432-.63700496705133,1.84822641483697-1.52247800365058,2.25017426646082l-13.95722275503067,7.44496906725908c-2.09293922275083.93859892125693-3.10291651942498,3.33742985761455-2.32691901950875,5.48242916163508l3.54779999821039,9.85827752880869c.77546063184764,2.15948501786261,3.08359720170029,3.35621461032497,5.29084249427615,2.75355486954504l15.49901982050869-3.16946436169746c.93860301558107-.25866293316176,1.9534095659219.03810176737898,2.60919723852385.76580212451336l8.91484730672164,9.796567896532c.66544617993532.7277003571362.85756817999209,1.7618280164661.5119663978594,2.67627862222798l-4.54328774261649,14.99617762086746c-.80444024817189,2.14499111537953.16314238373343,4.5534846533883,2.24051780628997,5.53019353067248l9.4708194853456,4.45259235253252c2.08274103250096.98154017811066,4.55777959793886.1915815494558,5.69279546380494-1.7956307449731l8.65188942900932-13.06638410848427c.48835443864209-.84254610987773,1.40763634523319-1.35987197619579,2.38917242902153-1.30298545610458l13.23435369872459.62251720604945c.98153198946693.04829663099372,1.85305771566709.63217161906141,2.25983686811833,1.52730521015656l7.43100742672959,13.94702379709634c.94826152291535,2.09294408476035,3.33742985761273,3.11257784160534,5.49155131269254,2.3365726648326l9.8539784899358-3.55208701000902ZM108.69296734089403,495.60433875583567c-6.11460078069831,2.1975867852434-12.72614588913802,1.89115948304607-18.6110592586756-.87634883838109-5.88438110758398-2.76750832142716-10.32785130906086-7.66069074356528-12.53509660163672-13.78012282509189-2.19758678524249-6.11889981957029-1.89115948304607-12.7261458891353.87688928898388-18.60569160156956,2.7669719651476-5.88920831408723,7.66498568811403-10.33267851556593,13.77959056313466-12.53456024535808,6.11889572524706-2.20295444234762,12.72614179481388-1.89652304582887,18.60568750724542.88064378293348,5.87954571243336,2.75784981409379,10.33267851556684,7.65157268683106,12.53938745186406,13.77046841207994,2.19811904719882,6.11943208152479,1.88686863281964,12.72184685026332-.87581657642659,18.60676431412685-2.77716273443821,5.87900526182966-7.66605430634809,10.33159761436218-13.77958237448911,12.53884700126036Z" fill="#363a4f" stroke-width="0"/><path d="M30.00000000060118,900.09571236938064l-.00000000060118,13.36516983215188c-.00000000013188,2.923019288457,2.25216589362208,5.36745244073609,5.17088254119062,5.58767385884858l19.96913213545122,2.89938257295944c1.25096286324606.10097238075832,2.32896085450557.89108125982602,2.80807289410313,2.0464282211542l6.47446265559665,15.62268933897576c.48340665639626,1.15964156583141.26802014975237,2.48687105700446-.53712214990901,3.43112673276119l-11.94721414102423,16.05400204164107c-1.8976633081229,2.22367081064658-1.77788939627499,5.52966391449445.29755793375534,7.60992443979922l9.4544185719933,9.45009690369625c2.06523532138635,2.07006493751396,5.38679358127592,2.19467403475937,7.60511068252163.29219702281625l16.04975338294662-11.94717993895756c.94371745389162-.80459907127079,2.27578628629726-1.02052588469087,3.4263010131217-.53603876507623l15.63186421934097,6.46908406309376c1.15535026863745.48448711962192,1.94546140941475,1.56731755299552,2.04643407911408,2.81773591172168l2.89455532927423,19.96423944321577c.22989313189919,2.91816736887267,2.65930212274452,5.17568687551466,5.58714892893477,5.17568687564562l13.3705845588247.00000000059663c2.92732227284159.00000000013461,5.35725579724112-2.25750311466982,5.58714892939952-5.17568687513995l2.8993908728844-19.96423944295748c.09667805301251-1.25041835871525.88678919388622-2.33324879201973,2.04213946256732-2.81773591153251l15.63186421992305-6.46908406169678c1.15535026868019-.48448711950914,2.47774801743799-.26856030597264,3.43113655488651.53603876538909l16.04491784005859,11.9471799403982c2.21831710107654,1.90247701213957,5.53450708997934,1.77786791519247,7.6094134951818-.29219702213595l9.45012395604135-9.4500969028486c2.07060359257139-2.08026052511559,2.19522124236391-5.38623723733326.29756613027257-7.60992443976647l-11.94237040193184-16.05400204271427c-.81051876640686-.94425567583312-1.02590527293432-2.271485167028-.54195769141825-3.43112673281212l6.4744708528342-15.62268933839732c.46944095607159-1.15534696128088,1.56194557284562-1.94545584025036,2.80323735247202-2.04642822089954l19.97826229432576-2.89938257116592c2.91334837658997-.22022141785055,5.16603880391267-2.66467096154884,5.16603880404364-5.58767385838655l.00000000059936-13.36516983215188c.00000000013097-2.9278384248064-2.2521495019555-5.36207598929104-5.1660388035416-5.59249299519797l-19.97825409823236-2.89938257295944c-1.24128358378221-.10097238076196-2.33379639631949-.88678665532643-2.8032373522874-2.04642822115056l-6.47447085142903-15.6226893389794c-.4839475814133-1.15051143335222-.26802014975237-2.47774092453255.54195769172202-3.42199660028928l11.94237040337612-16.05346111817198c1.89711418727438-2.22367900645622,1.77250473361164-5.53985950228162-.29756612959045-7.60992443979558l-9.4501239551937-9.45009690369625c-2.07490640501419-2.07059766516977-5.3910963939079-2.19950956273169-7.6094134951536-.29702435497893l-16.04490964529759,11.94180348751615c-.95338853752037.81535197414996-2.27578628629726,1.02590233612864-3.43113655493653.5467916679554l-15.63186421934188-6.47874692322875c-1.15480934362222-.47427514020092-1.94544501774817-1.56194110155411-2.0367629954826-2.80806485577341l-2.90422641290479-19.96423944321577c-.22505759008436-2.92301109265827-2.6598266560959-5.17515414785885-5.58714892893659-5.17515414798982l-13.37058455882288-.00000000060027c-2.9230276560429-.00000000013097-5.3572557972393,2.25214305485497-5.58714892940225,5.17515414748414l-2.89455533106502,19.96423944296112c-.1009726698112,1.23645269826375-.89108381068581,2.33378971548882-2.04643407936783,2.80806485558423l-15.6270286781064,6.47874692183177c-1.1505147268681.47911066806773-2.48258355925554.26856030597264-3.42684193809055-.54679166826463l-16.05404799867028-11.94180348896043c-2.21831710107563-1.90732073592153-5.53933443596088-1.77304058302616-7.60511068255073.29702435429863l-9.45441857284004,9.4500969028486c-2.0705953967381,2.07006493732479-2.1952048506937,5.38570450967381-.29755793444019,7.60992443976647l11.94721413958359,16.04916651474196c.81964892501765.94855028033635,1.02106973111859,2.271485167028.5371221496016,3.4262912048398l-6.47446265699909,15.62268933839732c-.47911203970307,1.15910064231502-1.55711003103261,1.94543944863108-2.80807289428503,2.04105176945814l-19.96913213571497,2.90421809913823c-2.91871664758764.23041700564136-5.17086614989148,2.66465456992955-5.17143985837447,5.59303391820504ZM90.4073376088445,907.02377837874155c.00000000037289-8.28805562773414,3.227407217777-16.08343321187203,9.08764410445019-21.94367009801863,5.86506818750149-5.87042356111488,13.65454994719039-9.08764410285221,21.9479609490636-9.08764410248114,8.28803925044394.00000000037107,16.08772406210119,3.21722054281054,21.94796094824596,9.08764410445292,5.86076095945918,5.86076095998214,9.09247540368233,13.6556144710994,9.09247540330944,21.94365372154425-.00000000037198,8.29287055127133-3.23223851860439,16.08290913856399-9.09247540528031,21.9527922490779-5.86023688667137,5.85592965862816-13.65992169861784,9.08335325262306-21.94796094906178,9.08335325225198-8.29287055127224-.00000000037471-16.08236868796303-3.2274235950681-21.94796094824778-9.08335325422377-5.86077733674665-5.86988311103778-9.0876604801424-13.65992169862511-9.08764410247932-21.95277587260352Z" fill="#363a4f" stroke-width="0"/><path d="M212.24750376765769,862.67169980225299c2.15412145504433.77600517686733,4.54328978978901-.24362857986853,5.49155131279713-2.33657266458613l7.43100742735442-13.94702379676164c.40677915249307-.89513359107514,1.27830487871779-1.47900857910645,2.25983686818836-1.52730521005651l13.23435369875187-.622517205451c.98153608379107-.05688652004756,1.90081799035852.46043934631234,2.38917242896332,1.30298545620462l8.6518894284236,13.06638410887899c1.13501586577604,1.98721229447983,3.61005443117938,2.77717092324747,5.692795463724,1.79563074522957l9.47081948554387-4.45259235211415c2.07737542260202-.97670887718414,3.04495805461556-3.38520241515289,2.24051780654008-5.53019353056516l-4.54328774194346-14.99617762107664c-.34560178209176-.91445060577462-.15347978198861-1.94857826509542.51196639798036-2.67627862220252l8.91484730716002-9.79656789613c.65578767263469-.7277003571071,1.67059422298826-1.02446505760236,2.60919723855841-.76580212439876l15.49901982036863,3.16946436239232c2.20724529254767.60265974088179,4.51538186245398-.59406985147871,5.29084249439893-2.75355486930493l3.54779999865241-9.85827752864861c.77599750001264-2.14499930398961-.2339797965551-4.54383024038907-2.32691901926228-5.48242916174058l-13.9572227546978-7.44496906788117c-.88547303658106-.4019478516675-1.48437623621248-1.26381097623744-1.52247800354871-2.25017426653358l-.62251515829394-13.23381324815273c-.05259157549881-.97670478296277.45507987785186-1.89598668953113,1.30728244792044-2.38004618358536l13.06155076088635-8.66154793575697c1.99204871321217-1.1296482086691,2.77233936652374-3.61005033685433,1.79563432776104-5.68796416289479l-4.4531302437581-9.47135379466272c-.98153506011386-2.07737542260293-3.39002552734019-3.0540802056712-5.53018943624829-2.24051780653826l-14.99617762107209,4.54865335188879c-.91928395376726.34452906953447-1.94858031226067.14328491837659-2.67627862220343-.51250275425627l-9.8013951026378-8.92450786165864c-.72770035710528-.65578767263651-1.01963785109456-1.6711305792669-.76097082356773-2.60919723855477l3.15980176073572-15.49418954312205c.6128546044938-2.21153921352015-.5838749878676-4.51484550617897-2.74336000569474-5.29084275029891l-9.85345032214354-3.54780025454238c-2.15465371699793-.77599750001536-4.54865335257.2350531488446-5.49208766907304,2.32691901926228l-7.43583463386312,13.95185458579363c-.39712473948111.88118013919666-1.27830487871779,1.48491259249204-2.25500966168056,1.52784566066111l-13.23381734247505.62734441195789c-.9772411392396.04722596555439-1.90082208468084-.46420202890658-2.38487748441094-1.31211170158713l-8.65671663493049-13.06208711716317c-1.13447950949831-1.99634212239107-3.61488573200677-2.77716938787489-5.69279546372491-1.79992773694175l-9.47081539122155,4.457423652937c-2.08274103254644.97241137368837-3.04925504632411,3.38090132912475-2.24051985369988,5.53072579252694l4.54436250166145,14.996177621073c.35365122059011.91928395376453.15294752003319,1.94321470231444-.51250275425809,2.67144936853583l-8.91592820836377,9.79494449716731c-.66490982368941.72823671338483-1.66576701648228,1.02500550820332-2.61402853938489.75667997333949l-15.48936336019597-3.1549704599056c-2.21154023709914-.60802330366278-4.51968192490858.58870628869408-5.2999697633586,2.74819130652395l-3.54350530999727,9.85881797924958c-.77546472626727,2.14499520966274.23504687941659,4.54812109061459,2.32691825157781,5.48189280546649l13.95722684901648,7.44549723551245c.88654370197764.40248830226483,1.47041869000805,1.26917863334165,1.52301435982827,2.2507147171309l.62251720545646,13.23381734247232c.05312793177654.97670068864318-.45937482240242,1.90081389604165-1.30728449508388,2.38916833464464l-13.06155280804796,8.66154793575697c-1.9920435953054,1.13018865927006-2.78146177346935,3.60093228012192-1.79563074522594,5.68367331266563l4.45260054075243,9.47511443009716c.97724113914501,2.07790973171723,3.39002552734109,3.04495600745577,5.53072579252876,2.23568855287158l15.00529977212591-4.54328978910416c.90479619276721-.34452906953811,1.94911871570184-.14811621920308,2.66715647114961.50767145342979l9.80085874635915,8.91967860798832c.72286905627698.66061897346299,1.01481064458767,1.6705983173124.7615112741687,2.61885984021501l-3.16516532351852,15.48453205936676c-.60749104171009,2.21207249905274.58494770042216,4.52020599821844,2.74872356847754,5.29567072448481l9.85397848977482,3.55208701045194ZM209.60880284214636,803.72381104235683c-2.76268520897975-5.88491746398358-3.07393562306243-12.48733223273666-.87581657558985-18.60676431416505,2.20670893657189-6.11889572514701,6.65984173992547-11.0126185976842,12.53938745247979-13.77046841151605,5.87954571255796-2.77716682849496,12.48679178213843-3.08359822472266,18.60568750728635-.88064378210038,6.1146048749215,2.20188173006682,11.01261859768874,6.64535193176562,13.77959056257168,12.53456024597835,2.76804877176619,5.87954571255977,3.07447607366703,12.4867917821357.87688928814987,18.60569160160958-2.20724529285144,6.11943208142475-6.65071549454751,11.01261450336824-12.53509660225609,13.78012282452983-5.88491336966217,2.76750832116522-12.49645847811553,3.07393562306243-18.61105925871561.87634883754436-6.11352806804098-2.20724938717103-11.00241963975077-6.65984173992547-13.77958237392613-12.53884700188064Z" fill="#363a4f" stroke-width="0"/><path d="M1884.82856013957826,252.30511043577735l-19.969132135584-2.90421810003409c-1.25096286324879-.09561232088618-2.32896085454377-.88195112724679-2.80807289419135-2.04105176958728l-6.47446265629878-15.62268933868563c-.48394758146605-1.15480603783635-.28252677530691-2.477740924518.53712214975531-3.42629120481706l11.94721414030391-16.04916651420444c1.89764691635537-2.22421993000626,1.7730374625462-5.53985950236347-.29755793410004-7.60992443978284l-9.45441857241349-9.45009690327333c-2.06577624649617-2.07006493741665-5.38679358137597-2.20434509045936-7.60511068253618-.29702435463696l-16.05404799920871,11.94180348823829c-.94425837886956.81535197419271-2.27632721126975,1.02590233623232-3.42684193811328.54679166811093l-15.62702867781809-6.47874692252844c-1.15535026866019-.4742751401518-1.9454614094866-1.57161215740962-2.04643407923868-2.80806485568064l-2.89455533017099-19.96423944308754c-.22989313203288-2.92301109264372-2.66412127312651-5.17515414773516-5.58714892917124-5.17515414773516l-13.37058455882288-.00000000000182c-2.92732227283886,0-5.36209133895318,2.25214305509326-5.5871489291676,5.17515414773698l-2.90422641380064,19.96423944308754c-.09131797779082,1.24612375421566-.88195365196589,2.33378971553066-2.03676299560902,2.80806485567882l-15.6318642196311,6.47874692252844c-1.155350268662.47911066812321-2.47774801743071.26856030608542-3.43113655491288-.54679166811093l-16.04490964476281-11.94180348823556c-2.21831710116203-1.90248520785099-5.53450709005847-1.77357331043913-7.60941349516906.29702435463787l-9.45012395561571,9.45009690327333c-2.07007086329577,2.07006493741756-2.19468031710494,5.38624543324113-.29756612993151,7.60992443978103l11.94237040265398,16.05346111870949c.80997784143256.94425567579401,1.02590527303619,2.27148516698071.54195769157195,3.42199660031201l-6.47447085213389,15.62268933868745c-.46944095601975,1.15964156580685-1.5619537685925,1.9454558403213-2.80323735237835,2.04642822102596l-19.97825409836332,2.89938257206086c-2.91388930159519.23041700577596-5.16603880379262,2.66465457016329-5.16603880379262,5.59249299496787v13.36516983215552c0,2.92300289683226,2.25269042721266,5.36745244063331,5.16603880379262,5.58767385861483l19.97826229419479,2.89938257206086c1.24129177962277.10097238070557,2.33379639636041.89108125972416,2.80323735238198,2.04642822102687l6.47447085213207,15.62268933868836c.48394758146424,1.15964156580594.26856107487583,2.48687105699082-.54195769157195,3.43112673278756l-11.94237040265398,16.05400204217676c-1.89765511219048,2.22368720234863-1.7730374625462,5.52966391457085.29756612993151,7.60992443978193l9.45012395561571,9.45009690327242c2.07490640510878,2.07006493741846,5.39109639400885,2.19467403451563,7.60941349516906.2921970224761l16.0449178405961-11.94717993967788c.95338853748581-.80459907131262,2.2757862862527-1.02052588479182,3.43113655491106-.53603876523084l15.63186421963474,6.46908406239527c1.15535026865837.48448711956371,1.94546140948296,1.56731755290457,2.04213946243726,2.81773591162528l2.89939087198763,19.96423944308845c.22989313203107,2.91818376047922,2.65982665632691,5.17568687539188,5.5871489291676,5.17568687539188l13.37058455882652.00000000000182c2.92784680618752,0,5.35725579713653-2.25751950653284,5.5871489291676-5.17568687539551l2.89455533016917-19.96423944308663c.10097266975754-1.25041835872071.89108381058213-2.33324879206339,2.0464340792405-2.81773591162346l15.63186421963292-6.46908406239709c1.15051472684354-.4844871195628,2.48258355924008-.2685603060836,3.42630101309805.53603876523266l16.04975338240729,11.94717993967606c2.21831710116021,1.90247701204135,5.53987536105342,1.77786791494236,7.60511068253618-.29219702247519l9.45441857241713-9.45009690327333c2.07544733012401-2.08026052521109,2.19522124212199-5.38625362905259.29755793409822-7.60992443978012l-11.94721414030391-16.05400204217858c-.80514229962137-.94425567579856-1.02052880620249-2.27148516698162-.53712214975531-3.43112673278756l6.47446265629878-15.62268933868836c.47911203964759-1.15534696130271,1.55711003094257-1.9454558403213,2.80807289419317-2.04642822102687l19.969132135584-2.89938257206086c2.91871664757673-.22022141798334,5.17088254144073-2.66465457016147,5.17088254144073-5.58767385861665v-13.3651698321537c-.00057370835202-2.92837934827548-2.25272321054945-5.36261691266009-5.17143985812618-5.59303391843514ZM1820.50501828568304,286.77898623305646c-5.86559226054669,5.85592965889191-13.6550903973839,9.08335325323878-21.94796094865524,9.08335325323878-8.28803925044303,0-16.08772406224489-3.22742359434505-21.94796094865524-9.08335325323878-5.86023688641035-5.86988311077585-9.09247540429533-13.65992169821129-9.09247540429351-21.95279224948263-.00000000000182-8.28803925044485,3.23171444457148-16.08289276141932,9.09247540429351-21.94365372113862,5.86023688641035-5.87042356137681,13.6599216982122-9.08764410346521,21.94796094865524-9.08764410346521,8.29341100187412,0,16.08289276141841,3.2172205420884,21.94796094865524,9.08764410346521,5.86023688641035,5.86023688640853,9.08764410346521,13.65561447069376,9.08764410346521,21.9436700984279.0000163772911,8.29285417398205-3.2268667664539,16.08289276141659-9.08764410346521,21.95277587219334Z" fill="#363a4f" stroke-width="0"/><path d="M1717.60647472226083,216.92204476889492c2.16377586808994-.77546472616905,3.35621461032679-3.08359822528109,2.74872356871674-5.29567072436203l-3.16516532282549-15.48453205950864c-.25329937037714-.94826152291535.03864221798176-1.9582408667502.7615112742842-2.61885984018045l9.80085874676115-8.91967860754812c.7180377554796-.65578767260104,1.76236027842424-.85220052288605,2.66715647117417-.50767145331065l15.00529977192127,4.54328978977719c2.14070026515219.80926745467877,4.5534846533883-.1577788209479,5.53072579263062-2.23568855262238l4.45260054117716-9.47511442989617c.98583102833618-2.08274103250096.19641285028229-4.5534846533883-1.7956307449731-5.68367331274749l-13.06155280765961-8.66154793634632c-.8479096726569-.48835443864118-1.36041242679494-1.41246764605967-1.30728449497656-2.3891683346983l.62251720605127-13.23381734244413c.05259566986388-.98153608379198.63647065793521-1.84822641483788,1.52301435992922-2.25071471706269l13.95722684935208-7.44549723489217c2.09187137220397-.93377171475458,3.10238297799697-3.33689759565823,2.32691825182337-5.48189280535735l-3.54350530955526-9.85881797940965c-.78028783834998-2.15948501786261-3.08842952610939-3.35621461032679-5.29996976323309-2.74819130676133l-15.48936336033694,3.15497045921347c-.94826152291535.26832553481836-1.94911871569457-.02844326004833-2.61402853935215-.75667997345863l-8.91592820792357-9.79494449756839c-.66545027425855-.72823466625141-.86615397476999-1.75216541480859-.51250275413986-2.67144936856039l4.5443625023363-14.99617762086837c.80873519272245-2.1498244633658-.15777882095063-4.55831441884493-2.24051985345068-5.53072579262698l-9.4708153910251-4.45742365335991c-2.07790973167175-.97724165103045-4.5583159542166-.19641438565577-5.69279546380494,1.79992773668346l-8.65671663551439,13.06208711677391c-.48405539977102.84790967265872-1.40763634523137,1.35933766707876-2.38487748447187,1.31211170148254l-13.23381734244504-.62734441255725c-.97670478296277-.04293306820637-1.85788492217216-.64666552154631-2.25500966161235-1.5278456607557l-7.43583463323739-13.95185458613196c-.94343431640846-2.0918658704577-3.33743395193596-3.1029165194268-5.49208766896845-2.32691901950875l-9.85345032230362,3.54780025410309c-2.15948501786261.77599724402171-3.35621461032497,3.07930353662687-2.74336000593212,5.29084275017249l3.15980176004086,15.4941895432612c.25866702748317.93806665930424-.03327046655068,1.95340956592099-.76097082368506,2.60919723852385l-9.80139510303707,8.92450786121481c-.72769830997458.65578767260286-1.75699466847618.85703182371526-2.67627862222798.51250275413804l-14.99617762086746-4.54865335255909c-2.14016390887082-.81356239922752-4.54865437614171.16314238373434-5.53018943634925,2.24051780628906l-4.45313024418283,9.47135379446263c-.97670503885456,2.07791382599589-.19641438565668,4.55831595421569,1.79563432750547,5.68796416297664l13.06155076049799,8.66154793634541c.85220257004403.48405949409153,1.35987402335559,1.4033414006808,1.30728244781312,2.38004618364084l-.62251515888966,13.23381324812453c-.03810176737898.98636329029432-.63700496705133,1.84822641483697-1.52247800364967,2.25017426646082l-13.95722275502885,7.44496906725817c-2.09293922275356.93859892125965-3.1029165194268,3.33742985761455-2.32691901950966,5.4824291616369l3.54779999820857,9.85827752880959c.77546063184855,2.15948501786079,3.0835972017012,3.35621461032497,5.29084249427615,2.75355486954231l15.49901982051051-3.16946436169746c.93860301558198-.25866293316085,1.9534095659219.03810176738079,2.60919723852385.76580212451427l8.91484730672164,9.79656789653291c.66544617993532.72770035713438.85756817999209,1.76182801646519.51196639785849,2.67627862222707l-4.54328774261739,14.99617762086746c-.80444024817007,2.14499111537771.16314238373525,4.55348465339102,2.24051780629088,5.53019353067339l9.47081948534651,4.45259235253161c2.08274103250005.98154017811157,4.55777959793886.19158154945671,5.69279546380312-1.79563074497128l8.65188942901113-13.066384108487c.488354438643-.84254610987409,1.40763634523319-1.35987197619761,2.38917242902244-1.30298545610367l13.23435369872459.62251720604945c.9815319894642.04829663099281,1.85305771566527.63217161906141,2.25983686811742,1.52730521015565l7.4310074267305,13.94702379709634c.94826152291353,2.09294408476035,3.33742985761273,3.11257784160534,5.49155131269072,2.3365726648326l9.85397848993489-3.55208701000902ZM1696.61161478599388,174.0650900203882c-6.11460078069649,2.19758678524431-12.72614588913711,1.89115948304607-18.6110592586756-.87634883838018-5.88438110758398-2.76750832142898-10.32785130906086-7.6606907435671-12.53509660163945-13.7801228250928-2.19758678523976-6.11889981957029-1.89115948304061-12.72614588913621.87688928898569-18.60569160156683,2.76697196514942-5.88920831409087,7.66498568811585-10.33267851556593,13.77959056313921-12.53456024536081,6.11889572524342-2.20295444234671,12.72614179481207-1.89652304582705,18.60568750724451.88064378293438,5.87954571243063,2.75784981409379,10.33267851556229,7.65157268683288,12.53938745186133,13.77046841207994,2.19811904719791,6.11943208152479,1.88686863281873,12.72184685026241-.87581657642477,18.60676431412503-2.77716273443912,5.87900526183057-7.66605430634991,10.33159761436309-13.77958237449093,12.53884700126127Z" fill="#363a4f" stroke-width="0"/><path d="M1618.79957689429102,579.43739308252407l-.00000000060027,13.36516983215552c-.00000000013097,2.92301928845336,2.25216589362208,5.36745244073609,5.17088254118789,5.58767385884858l19.96913213545304,2.8993825729558c1.25096286324697.10097238076196,2.32896085450557.89108125982966,2.80807289410222,2.0464282211542l6.47446265559847,15.62268933897576c.48340665639626,1.15964156583141.26802014975146,2.4868710570081-.5371221499081,3.43112673276482l-11.94721414102605,16.05400204163925c-1.89766330812199,2.22367081064658-1.77788939627499,5.52966391449081.29755793375625,7.60992443979922l9.4544185719933,9.45009690369625c2.06523532138635,2.07006493751032,5.38679358127592,2.19467403475937,7.60511068252163.29219702281625l16.04975338294571-11.94717993895756c.94371745389253-.80459907127079,2.27578628629635-1.02052588469087,3.42630101312352-.53603876507623l15.63186421934006,6.4690840630974c1.15535026863654.48448711961828,1.94546140941566,1.56731755299188,2.04643407911317,2.81773591171805l2.89455532927423,19.96423944321577c.22989313189828,2.91816736887267,2.65930212274725,5.17568687551466,5.58714892893477,5.17568687564562l13.37058455882652.00000000059663c2.92732227284068.00000000013461,5.35725579723839-2.25750311466982,5.58714892939861-5.17568687514358l2.8993908728844-19.96423944295384c.09667805301251-1.25041835871525.88678919388622-2.33324879202337,2.04213946256641-2.81773591153251l15.63186421992395-6.46908406169678c1.15535026868019-.4844871195055,2.47774801743617-.268560305969,3.43113655488742.53603876538909l16.04491784005768,11.9471799403982c2.21831710107836,1.90247701213957,5.53450708997843,1.77786791519247,7.6094134951818-.29219702213595l9.45012395604135-9.4500969028486c2.0706035925723-2.08026052511559,2.19522124236391-5.38623723733326.29756613027166-7.60992443976647l-11.94237040193002-16.05400204271245c-.81051876640777-.94425567583312-1.02590527293432-2.27148516703164-.54195769141916-3.43112673281212l6.4744708528342-15.62268933840096c.46944095607068-1.15534696128088,1.56194557284471-1.94545584025036,2.80323735247111-2.0464282208959l19.97826229432758-2.89938257116955c2.91334837658906-.22022141785055,5.16603880391085-2.66467096154884,5.16603880404182-5.58767385838291l.00000000060027-13.36516983215188c.00000000013279-2.92783842481003-2.2521495019555-5.36207598929832-5.1660388035416-5.59249299519797l-19.97825409823236-2.89938257296308c-1.24128358378039-.10097238075832-2.33379639631858-.88678665532279-2.80323735228558-2.0464282211542l-6.47447085143358-15.62268933897576c-.48394758141148-1.15051143335222-.26802014974965-2.47774092452528.54195769172657-3.42199660028928l11.9423704033743-16.05346111817107c1.89711418727347-2.22367900645258,1.77250473361164-5.53985950228343-.29756612958772-7.60992443979558l-9.45012395519734-9.45009690369625c-2.07490640501419-2.07059766516795-5.39109639390517-2.19950956272987-7.60941349515087-.29702435497893l-16.04490964529941,11.94180348751433c-.95338853752219.8153519741536-2.27578628629817,1.02590233613228-3.43113655493835.54679166795904l-15.63186421934006-6.47874692323057c-1.15480934362313-.47427514020274-1.94544501774908-1.56194110155047-2.03676299548351-2.80806485577159l-2.90422641290388-19.96423944321759c-.22505759008527-2.92301109265463-2.6598266560959-5.17515414785521-5.58714892893659-5.175154147988l-13.3705845588247-.00000000060027c-2.9230276560429-.00000000013097-5.35725579723839,2.25214305485133-5.58714892940043,5.17515414748596l-2.89455533106593,19.96423944295748c-.10097266981211,1.23645269826739-.89108381068581,2.33378971549064-2.04643407936783,2.80806485558787l-15.62702867810549,6.47874692182631c-1.15051472686719.47911066807137-2.48258355925645.26856030597446-3.42684193809146-.54679166826463l-16.0540479986721-11.94180348895679c-2.21831710107472-1.90732073592153-5.53933443595997-1.7730405830298-7.60511068254709.29702435429681l-9.45441857284095,9.4500969028486c-2.07059539673719,2.07006493732661-2.19520485069552,5.38570450967563-.29755793444019,7.60992443976829l11.94721413958177,16.04916651474286c.81964892501856.94855028033271,1.0210697311195,2.27148516702437.53712214960069,3.4262912048398l-6.47446265699546,15.62268933839732c-.47911203970398,1.15910064231502-1.55711003103534,1.94543944863108-2.80807289428776,2.04105176945814l-19.96913213571315,2.90421809913823c-2.91871664758764.23041700564499-5.17086614989057,2.66465456992955-5.17143985837538,5.5930339182014ZM1679.20691450253616,586.36545909188862c.00000000037107-8.28805562773778,3.22740721777518-16.08343321187203,9.08764410444928-21.94367009801863,5.86506818750058-5.87042356111488,13.65454994719039-9.08764410285585,21.94796094906269-9.08764410248114,8.28803925044485.00000000037107,16.08772406210119,3.21722054281054,21.94796094824778,9.08764410444928,5.86076095945646,5.86076095998214,9.09247540368051,13.65561447110304,9.09247540330944,21.94365372154425-.00000000037289,8.29287055127133-3.2322385186053,16.08290913856763-9.09247540528122,21.9527922490779-5.86023688667228,5.85592965862816-13.65992169861784,9.08335325262669-21.94796094906087,9.08335325225198-8.29287055127315-.00000000037107-16.08236868796484-3.2274235950681-21.9479609482496-9.08335325422013-5.86077733674574-5.86988311104142-9.08766048014331-13.65992169862511-9.0876441024775-21.95277587260352Z" fill="#363a4f" stroke-width="0"/><path d="M1801.04708066134845,542.01338051540006c2.15412145504342.77600517686733,4.5432897897881-.24362857986853,5.49155131279622-2.33657266458704l7.43100742735805-13.94702379676346c.40677915249034-.89513359107514,1.27830487871688-1.47900857910645,2.25983686818472-1.52730521005469l13.23435369875369-.62251720545464c.98153608379107-.05688652004756,1.90081799035943.46043934631416,2.38917242896241,1.30298545621008l8.6518894284236,13.06638410887535c1.13501586577695,1.98721229447801,3.61005443117938,2.77717092324565,5.69279546372491,1.79563074522957l9.47081948554478-4.4525923521087c2.07737542259929-.97670887718959,3.04495805461374-3.38520241515835,2.24051780653826-5.53019353057243l-4.54328774194255-14.99617762107118c-.34560178209176-.91445060577644-.15347978198952-1.94857826509906.51196639797672-2.67627862220434l8.91484730716365-9.79656789613182c.65578767263651-.7277003571071,1.67059422298735-1.02446505760054,2.60919723855841-.76580212439694l15.49901982036499,3.16946436239232c2.20724529254949.60265974087997,4.51538186245853-.59406985147871,5.29084249440166-2.75355486930675l3.54779999865241-9.85827752864679c.77599750001355-2.14499930398961-.23397979655419-4.54383024038907-2.32691901926228-5.4824291617424l-13.9572227546978-7.44496906788481c-.88547303658015-.40194785166295-1.48437623621248-1.2638109762338-1.5224780035478-2.25017426652903l-.62251515829303-13.23381324815182c-.05259157550063-.97670478296368.45507987785095-1.89598668953113,1.30728244791862-2.38004618358536l13.06155076088544-8.66154793575788c1.99204871321308-1.12964820867001,2.77233936652374-3.61005033685433,1.79563432776195-5.68796416289479l-4.45313024375719-9.47135379466272c-.98153506011477-2.07737542260111-3.390025527342-3.05408020566938-5.5301894362492-2.24051780653735l-14.99617762107118,4.54865335188788c-.91928395376635.34452906953356-1.94858031226067.14328491837568-2.67627862220434-.51250275425809l-9.80139510263689-8.92450786165682c-.72770035710528-.6557876726356-1.01963785109365-1.6711305792669-.76097082357046-2.60919723855841l3.15980176073754-15.49418954311932c.6128546044929-2.21153921351925-.58387498786578-4.51484550617624-2.74336000569201-5.29084275029527l-9.85345032214536-3.54780025454693c-2.15465371699793-.77599750001264-4.54865335257091.23505314884915-5.49208766907395,2.32691901926228l-7.43583463386312,13.95185458579908c-.3971247394802.88118013919211-1.2783048787187,1.48491259249022-2.25500966168147,1.52784566065566l-13.23381734247414.62734441196153c-.9772411392405.04722596555348-1.90082208468084-.46420202890749-2.38487748441185-1.31211170158895l-8.65671663493049-13.06208711716317c-1.1344795094974-1.99634212239016-3.61488573200586-2.77716938787671-5.69279546372309-1.79992773694084l-9.47081539122519,4.457423652937c-2.08274103254371.97241137368655-3.04925504632229,3.38090132912293-2.24051985369624,5.53072579252603l4.54436250166145,14.996177621073c.35365122058829.91928395376635.15294752003138,1.94321470231534-.51250275426173,2.67144936853765l-8.91592820836013,9.79494449716731c-.66490982369032.72823671338301-1.66576701648228,1.02500550820059-2.61402853938671.75667997334131l-15.48936336019506-3.15497045990833c-2.21154023709823-.6080233036655-4.51968192490676.58870628869499-5.29996976335678,2.74819130652213l-3.54350530999909,9.85881797924958c-.77546472626818,2.14499520966547.23504687941568,4.54812109061459,2.32691825157599,5.48189280546285l13.95722684901921,7.44549723551791c.88654370197582.40248830226574,1.47041869000714,1.26917863333892,1.52301435982918,2.2507147171309l.62251720545464,13.23381734247414c.05312793177472.97670068864136-.45937482240333,1.9008138960362-1.30728449508388,2.38916833463918l-13.06155280804887,8.66154793576061c-1.99204359530631,1.13018865926824-2.78146177346935,3.60093228012011-1.79563074522594,5.68367331266563l4.45260054075334,9.47511443009716c.97724113914592,2.07790973171723,3.390025527342,3.04495600745213,5.53072579252694,2.23568855287158l15.00529977212864-4.54328978910416c.9047961927663-.34452906953629,1.94911871570002-.14811621920489,2.6671564711487.50767145342979l9.80085874635915,8.91967860798832c.72286905627698.66061897346299,1.01481064458858,1.67059831731058.76151127416779,2.61885984021501l-3.16516532351852,15.48453205936676c-.60749104171009,2.21207249905274.58494770042489,4.52020599821844,2.74872356847845,5.29567072448481l9.85397848977482,3.55208701045285ZM1798.40837973583621,483.06549175550299c-2.76268520897975-5.88491746398631-3.07393562306243-12.48733223273848-.87581657558985-18.60676431416505,2.20670893657189-6.11889572514883,6.65984173992547-11.01261859768692,12.53938745248161-13.77046841151696,5.87954571255614-2.77716682849768,12.48679178213752-3.08359822472084,18.60568750728453-.88064378209765,6.11460487492513,2.20188173006682,11.01261859768965,6.6453519317638,13.7795905625735,12.53456024597654,2.76804877176437,5.87954571255705,3.07447607366703,12.48679178213752.87688928814714,18.60569160160776-2.2072452928478,6.11943208142839-6.65071549454478,11.01261450336642-12.53509660225427,13.78012282452983-5.88491336966035,2.7675083211634-12.49645847811553,3.07393562306424-18.61105925871379.87634883754617-6.1135280680428-2.20724938717467-11.00241963975168-6.65984173992547-13.77958237392886-12.53884700188064Z" fill="#363a4f" stroke-width="0"/><path d="M1884.82856013957826,894.50267845807866l-19.969132135584-2.90421810003318c-1.25096286324697-.09561232088527-2.32896085454013-.88195112724861-2.80807289419135-2.04105176958547l-6.47446265629878-15.62268933868836c-.48394758146605-1.15480603783362-.28252677530691-2.47774092451436.53712214975531-3.42629120481433l11.94721414030391-16.04916651421081c1.89764691635537-2.22421993000171,1.77303746254802-5.53985950235801-.29755793409822-7.60992443977739l-9.45441857241531-9.45009690327061c-2.06577624649617-2.07006493741937-5.38679358137597-2.2043450904639-7.60511068253982-.2970243546406l-16.05404799920507,11.94180348823647c-.94425837886956.81535197419726-2.27632721126975,1.02590233623414-3.42684193811328.54679166811184l-15.62702867781809-6.47874692253026c-1.15535026865837-.47427514014998-1.94546140948296-1.5716121574078-2.04643407923868-2.80806485567882l-2.89455533017099-19.96423944308845c-.22989313203288-2.92301109264372-2.66412127312651-5.17515414773516-5.5871489291676-5.17515414773516h-13.37058455882288c-2.9273222728425,0-5.36209133895682,2.25214305509144-5.58714892917124,5.17515414773516l-2.90422641380064,19.96423944308845c-.09131797779082,1.24612375421566-.88195365196589,2.33378971552884-2.03676299560721,2.80806485567882l-15.63186421963292,6.47874692253026c-1.155350268662.4791106681223-2.47774801743071.26856030608542-3.43113655491288-.54679166811184l-16.04490964476281-11.94180348823647c-2.21831710116021-1.90248520785099-5.53450709005847-1.77357331043822-7.60941349516725.2970243546406l-9.45012395561571,9.45009690327061c-2.07007086329577,2.07006493741937-2.19468031710858,5.38624543324113-.29756612993333,7.60992443978103l11.9423704026558,16.0534611187104c.80997784143074.94425567579674,1.02590527303437,2.27148516698071.54195769156831,3.4219966003111l-6.47447085213207,15.62268933868836c-.46944095601793,1.15964156580594-1.5619537685925,1.94545584032312-2.80323735237835,2.04642822102323l-19.97825409836332,2.8993825720645c-2.91388930159701.23041700577596-5.1660388037908,2.66465457015875-5.1660388037908,5.59249299496514v13.36516983215552c0,2.92300289683408,2.25269042721084,5.36745244063422,5.1660388037908,5.58767385861574l19.97826229419661,2.8993825720645c1.24129177962095.10097238070375,2.33379639636041.89108125972052,2.80323735238017,2.04642822102323l6.47447085213389,15.62268933868836c.48394758146242,1.15964156580958.26856107487583,2.48687105699355-.54195769157195,3.43112673279029l-11.9423704026558,16.05400204217585c-1.89765511219048,2.22368720234954-1.77303746254438,5.52966391457085.29756612993515,7.60992443978103l9.45012395561389,9.45009690327424c2.07490640510878,2.07006493741937,5.39109639400704,2.19467403451563,7.60941349516725.29219702247428l16.0449178405961-11.94717993967788c.95338853748581-.80459907131444,2.2757862862527-1.02052588479273,3.43113655491106-.53603876523266l15.63186421963474,6.46908406239527c1.15535026865837.48448711956371,1.94546140948296,1.56731755290457,2.04213946243726,2.8177359116271l2.89939087199127,19.96423944308845c.22989313202743,2.91818376048104,2.65982665632328,5.17568687539097,5.5871489291676,5.17568687539097h13.37058455882288c2.92784680618752,0,5.35725579713471-2.25751950652921,5.5871489291676-5.17568687539097l2.89455533016917-19.96423944308845c.10097266975754-1.25041835872253.89108381058213-2.33324879206339,2.0464340792405-2.8177359116271l15.6318642196311-6.46908406239527c1.150514726849-.48448711956007,2.4825835592419-.26856030608178,3.42630101309987.53603876522902l16.04975338240729,11.94717993968152c2.21831710116021,1.90247701204135,5.53987536105706,1.77786791494509,7.60511068253618-.29219702247428l9.45441857241713-9.45009690327424c2.07544733012401-2.08026052521018,2.19522124212199-5.38625362905441.29755793409822-7.60992443978466l-11.94721414030391-16.05400204217585c-.80514229962137-.9442556757931-1.02052880620249-2.27148516697707-.53712214975531-3.43112673278665l6.47446265629878-15.62268933868836c.47911203964941-1.15534696130271,1.55711003094439-1.94545584032312,2.80807289419317-2.04642822102323l19.96913213558219-2.8993825720645c2.91871664757855-.22022141798152,5.17088254144255-2.66465457016238,5.17088254144255-5.58767385861574v-13.36516983215552c-.00057370835202-2.92837934827185-2.25272321054945-5.36261691266191-5.17143985812618-5.59303391843423ZM1820.50501828568304,928.97655425535959c-5.86559226054669,5.85592965889009-13.6550903973839,9.08335325323424-21.94796094865524,9.08335325323787-8.28803925044303,0-16.08772406224489-3.22742359434778-21.94796094865524-9.08335325323787-5.86023688641217-5.86988311077585-9.09247540429533-13.65992169821402-9.09247540429351-21.95279224948536-.00000000000182-8.28803925044485,3.23171444457148-16.08289276141659,9.09247540429351-21.9436537211368,5.86023688641035-5.87042356138045,13.6599216982122-9.08764410346703,21.94796094865524-9.08764410346703,8.29341100187412,0,16.08289276141841,3.21722054208658,21.94796094865524,9.08764410346703,5.86023688641035,5.86023688640853,9.08764410346521,13.65561447069194,9.08764410346521,21.94367009842608.0000163772911,8.29285417398205-3.2268667664539,16.08289276142023-9.08764410346521,21.95277587219607Z" fill="#363a4f" stroke-width="0"/><path d="M1717.60647472225901,859.11961279119896c2.16377586809176-.77546472617178,3.35621461032861-3.08359822528291,2.74872356872038-5.29567072436475l-3.16516532282731-15.48453205950864c-.25329937037532-.94826152291353.03864221798176-1.95824086674838.76151127428784-2.61885984017863l9.80085874675933-8.91967860754812c.71803775547778-.65578767260376,1.76236027842242-.85220052288787,2.66715647117235-.50767145330974l15.00529977192127,4.54328978977355c2.14070026515219.80926745467877,4.55348465339011-.15777882094699,5.53072579263062-2.23568855262056l4.45260054117716-9.47511442989708c.98583102833618-2.08274103250005.19641285028229-4.55348465339193-1.7956307449731-5.68367331274567l-13.06155280765779-8.66154793634632c-.84790967266053-.48835443863936-1.36041242679676-1.41246764605967-1.30728449497474-2.38916833469921l.62251720604945-13.23381734244322c.0525956698657-.98153608379289.63647065793157-1.84822641484061,1.52301435992922-2.25071471706542l13.95722684935026-7.44549723489035c2.09187137220397-.93377171475368,3.10238297799697-3.33689759566187,2.32691825182701-5.48189280536099l-3.54350530955526-9.85881797940601c-.78028783835543-2.15948501786625-3.08842952610939-3.35621461032497-5.29996976323673-2.74819130676042l-15.48936336033694,3.15497045921074c-.94826152291535.26832553481654-1.94911871569457-.02844326004561-2.61402853935215-.7566799734559l-8.91592820792357-9.79494449756749c-.66545027425673-.72823466625414-.86615397476999-1.75216541481132-.51250275413986-2.6714493685613l4.5443625023363-14.99617762086928c.80873519272245-2.14982446336944-.15777882094881-4.55831441884584-2.24051985345068-5.53072579262516l-9.47081539102146-4.45742365336264c-2.07790973167539-.97724165102773-4.55831595421841-.19641438565668-5.69279546380676,1.79992773667982l-8.6567166355162,13.06208711677755c-.4840553997692.84790967266235-1.40763634523137,1.35933766707967-2.38487748447005,1.31211170148526l-13.23381734244686-.62734441255816c-.97670478296095-.04293306820909-1.85788492217034-.64666552154449-2.25500966161417-1.52784566075934l-7.43583463323557-13.95185458613196c-.94343431640846-2.0918658704577-3.33743395193596-3.10291651942316-5.49208766896663-2.32691901950602l-9.85345032230543,3.54780025409855c-2.15948501786261.77599724402535-3.35621461032497,3.0793035366296-2.74336000593212,5.29084275017522l3.15980176004268,15.49418954326393c.25866702748499.93806665930242-.03327046655068,1.9534095659219-.76097082368688,2.60919723852567l-9.80139510303889,8.92450786121481c-.72769830997277.65578767260013-1.75699466847436.85703182371435-2.67627862222434.51250275413986l-14.99617762086928-4.54865335256545c-2.14016390887082-.81356239922752-4.54865437613989.16314238373525-5.53018943634925,2.24051780629088l-4.45313024418465,9.47135379446627c-.97670503885274,2.07791382598953-.19641438565304,4.55831595421478,1.79563432750911,5.68796416297118l13.06155076049436,8.66154793634632c.85220257004767.48405949409062,1.35987402335923,1.4033414006808,1.30728244781494,2.38004618363993l-.62251515888784,13.23381324812726c-.03810176738079.9863632902925-.63700496704951,1.84822641483697-1.52247800364967,2.25017426646082l-13.95722275503067,7.44496906725544c-2.09293922275174.93859892126056-3.1029165194268,3.33742985761273-2.32691901950966,5.48242916163872l3.54779999820676,9.85827752880869c.77546063185036,2.15948501786261,3.08359720170301,3.35621461032497,5.29084249427797,2.7535548695414l15.49901982051051-3.16946436169746c.93860301558016-.25866293315994,1.95340956592372.03810176738261,2.60919723852385.76580212451881l8.91484730671982,9.79656789653018c.66544617993895.72770035713256.85756817999572,1.76182801646792.51196639786212,2.67627862222434l-4.54328774261921,14.99617762086928c-.80444024816825,2.14499111537953.16314238373343,4.55348465339193,2.2405178062927,5.53019353067066l9.47081948534469,4.45259235253616c2.08274103250005.98154017811248,4.55777959793886.19158154945399,5.69279546380494-1.79563074497128l8.65188942901113-13.06638410848973c.488354438643-.84254610987409,1.40763634523319-1.35987197619397,2.38917242902062-1.30298545609912l13.23435369872641.62251720604399c.9815319894642.04829663099372,1.85305771566345.63217161906505,2.2598368681156,1.52730521015837l7.43100742672868,13.94702379709634c.94826152291535,2.09294408475762,3.33742985761637,3.11257784160625,5.49155131269436,2.33657266483351l9.85397848993125-3.55208701000811ZM1696.61161478599388,816.26265804268951c-6.11460078069831,2.19758678524522-12.7261458891353,1.89115948304607-18.61105925867378-.87634883838109-5.88438110758398-2.76750832142716-10.32785130906086-7.6606907435671-12.53509660163763-13.78012282509007-2.1975867852434-6.11889981956847-1.89115948304607-12.72614588913348.87688928898206-18.60569160156956,2.76697196514942-5.88920831408905,7.66498568811767-10.33267851556593,13.77959056313557-12.53456024535626,6.11889572524706-2.20295444235308,12.7261417948157-1.89652304583069,18.60568750724815.88064378292984,5.87954571243063,2.75784981409743,10.33267851556411,7.65157268683106,12.53938745186315,13.77046841207994,2.19811904719609,6.11943208152661,1.88686863281691,12.72184685026514-.87581657642841,18.60676431412503-2.7771627344373,5.87900526183148-7.66605430634627,10.331597614364-13.77958237448911,12.53884700126218Z" fill="#363a4f" stroke-width="0"/></g></svg>