<?xml version="1.0" encoding="UTF-8"?><svg id="Layer_2" xmlns="http://www.w3.org/2000/svg" viewBox="0 0 4760.96 1096"><path d="M237.5,848.5c-36.67,0-74-4.5-112-13.5s-69.67-20.83-95-35.5l5-136h10l31,65c9.33,18.67,19.33,35.17,30,49.5,10.66,14.34,25.33,25.5,44,33.5,13.33,6.67,26.16,11.17,38.5,13.5,12.33,2.34,26.16,3.5,41.5,3.5,40.66,0,72.83-11,96.5-33,23.66-22,35.5-50.33,35.5-85,0-32.66-8-58.16-24-76.5-16-18.33-41.67-36.16-77-53.5l-41-18c-57.34-25.33-102.17-54.5-134.5-87.5-32.34-33-48.5-76.83-48.5-131.5,0-39.33,10.16-73.33,30.5-102,20.33-28.66,48.66-50.66,85-66,36.33-15.33,78.83-23,127.5-23,35.33,0,68.83,4.67,100.5,14,31.66,9.34,59.16,22,82.5,38l-6,120h-10l-41-75c-11.34-23.33-22.67-39.83-34-49.5-11.34-9.66-24.34-16.5-39-20.5-8.67-2.66-16.67-4.5-24-5.5-7.34-1-16.67-1.5-28-1.5-34,0-62.67,9.84-86,29.5-23.34,19.67-35,46.17-35,79.5s9,61.17,27,81.5c18,20.34,44.33,38.5,79,54.5l46,20c64,28,110,57.84,138,89.5,28,31.67,42,72.5,42,122.5,0,58.67-22.17,106.5-66.5,143.5-44.34,37-107.17,55.5-188.5,55.5Z" fill="#a5adcb" stroke="#a5adcb" stroke-miterlimit="10"/><path d="M721.5,845.5c-42.67,0-75.84-10.67-99.5-32-23.67-21.33-35.5-55.33-35.5-102v-342h-69v-10l24-4c20.66-4.66,38.5-11.33,53.5-20,15-8.66,29.83-20.33,44.5-35l82-91h10l-3,140h112v20h-113v360c0,23.34,5.16,41,15.5,53,10.33,12,23.5,18,39.5,18,14,0,26.33-3.5,37-10.5,10.66-7,21.33-16.5,32-28.5l10,10c-13.34,22.67-31.67,40.67-55,54-23.34,13.33-51.67,20-85,20Z" fill="#a5adcb" stroke="#a5adcb" stroke-miterlimit="10"/><path d="M1140.5,334.5c43.33,0,80.33,8.84,111,26.5,30.66,17.67,54.16,41.67,70.5,72,16.33,30.34,24.5,64.84,24.5,103.5,0,7.34-.34,14.84-1,22.5-.67,7.67-2,14.5-4,20.5h-298c.66,72,13.5,123.84,38.5,155.5,25,31.67,62.16,47.5,111.5,47.5,33.33,0,60.33-5.33,81-16,20.66-10.66,40-26.33,58-47l10,9c-20.67,36.67-48.17,65.34-82.5,86-34.34,20.66-75.5,31-123.5,31s-89.34-10.17-126-30.5c-36.67-20.33-65.34-49.5-86-87.5-20.67-38-31-83.33-31-136s12-101.16,36-139.5c24-38.33,54.83-67.5,92.5-87.5,37.66-20,77.16-30,118.5-30ZM1137.5,354.5c-19.34,0-35.84,5.84-49.5,17.5-13.67,11.67-24.34,32.34-32,62-7.67,29.67-11.84,71.5-12.5,125.5h171c6.66-72.66,4-125-8-157s-35-48-69-48Z" fill="#a5adcb" stroke="#a5adcb" stroke-miterlimit="10"/><path d="M1538.49,845.5c-38.67,0-71.17-11-97.5-33-26.34-22-39.5-53.66-39.5-95,0-31.33,16-60.16,48-86.5,32-26.33,82.33-46.16,151-59.5,10.66-2,22.66-4.16,36-6.5,13.33-2.33,27.33-4.83,42-7.5v-79c0-45.33-5.5-77.16-16.5-95.5-11-18.33-28.17-27.5-51.5-27.5-16,0-28.67,5.17-38,15.5-9.34,10.34-15.34,28.17-18,53.5l-2,11c-1.34,28.67-8.34,49.67-21,63-12.67,13.34-28.34,20-47,20-17.34,0-31.67-5.33-43-16-11.34-10.66-17-25-17-43,0-27.33,9.5-50.33,28.5-69,19-18.66,44.16-32.66,75.5-42,31.33-9.33,65.33-14,102-14,59.33,0,105.16,14.5,137.5,43.5,32.33,29,48.5,76.17,48.5,141.5v221c0,30,14,45,42,45h22l9,8c-12.67,16-26.5,28.34-41.5,37s-36.17,13-63.5,13c-29.34,0-52.5-6.84-69.5-20.5s-28.17-31.83-33.5-54.5c-20,21.34-40.5,39.5-61.5,54.5s-48.17,22.5-81.5,22.5ZM1599.49,784.5c13.33,0,25.83-3.16,37.5-9.5,11.66-6.33,25.5-16.16,41.5-29.5v-168c-6.67,1.34-13.34,2.67-20,4-6.67,1.34-14.34,2.67-23,4-30.67,8-55.17,21.5-73.5,40.5-18.34,19-27.5,44.5-27.5,76.5,0,27.34,6.33,47.84,19,61.5,12.66,13.67,28,20.5,46,20.5Z" fill="#a5adcb" stroke="#a5adcb" stroke-miterlimit="10"/><path d="M1908.49,830.5v-10l14-4c12.66-3.33,21.5-9,26.5-17s7.83-18.66,8.5-32v-313c0-14.66-2.34-25.5-7-32.5-4.67-7-13.67-11.83-27-14.5l-15-4v-10l171-58,10,10,8,68c22-22,47.16-40.66,75.5-56,28.33-15.33,57.83-23,88.5-23s57.66,6.5,77,19.5c19.33,13,34,33.17,44,60.5,26-24.66,54.16-44.16,84.5-58.5,30.33-14.33,59.83-21.5,88.5-21.5,47.33,0,82.16,11.34,104.5,34,22.33,22.67,33.5,58.34,33.5,107v293c0,26,12,42.34,36,49l11,3v10h-231v-10l10-3c12.66-4,21.5-10,26.5-18s7.5-18.66,7.5-32v-306c0-28-5-47.16-15-57.5-10-10.33-26-15.5-48-15.5-17.34,0-34.17,3.84-50.5,11.5-16.34,7.67-33.5,19.17-51.5,34.5,3.33,10.67,5.5,22.34,6.5,35,1,12.67,1.5,26,1.5,40v259c.66,26,12.66,42.34,36,49l9,3v10h-232v-10l14-4c12.66-4,21.5-9.83,26.5-17.5,5-7.66,7.5-18.16,7.5-31.5v-305c0-26.66-4.84-45.66-14.5-57-9.67-11.33-26.17-17-49.5-17-15.34,0-30.67,3.84-46,11.5-15.34,7.67-31.34,18.84-48,33.5v335c0,26,11.66,42.34,35,49l9,3v10h-235Z" fill="#a5adcb" stroke="#a5adcb" stroke-miterlimit="10"/><path d="M2915.49,833.5l-177-595c-4.67-15.33-9.67-26.5-15-33.5-5.34-7-14.67-13.5-28-19.5l-12-5v-10h265v10l-21,8c-15.34,6-25.67,13.34-31,22-5.34,8.67-5.67,20.67-1,36l109,416,118-349-23-71c-4.67-14-9-24.66-13-32-4-7.33-10.67-13.33-20-18l-22-12v-10h251v10l-31,12c-13.34,4.67-20.84,11.5-22.5,20.5-1.67,9-.17,20.5,4.5,34.5l127,425,120-417c4.66-16,6.33-30,5-42-1.34-12-9.67-20.66-25-26l-21-7v-10h139v10l-26,10c-13.34,4.67-22.67,12-28,22-5.34,10-10,22.34-14,37l-166,584h-69l-150-470-154,470h-69Z" fill="#a5adcb" stroke="#a5adcb" stroke-miterlimit="10"/><path d="M3777.48,845.5c-50.67,0-94.67-10.5-132-31.5-37.34-21-66.17-50.83-86.5-89.5-20.34-38.66-30.5-84-30.5-136s10.83-97,32.5-135c21.66-38,51.33-67.33,89-88,37.66-20.66,80.16-31,127.5-31s89.66,10.17,127,30.5c37.33,20.34,66.83,49.5,88.5,87.5,21.66,38,32.5,83.34,32.5,136s-10.17,98.17-30.5,136.5c-20.34,38.34-49,68-86,89s-80.84,31.5-131.5,31.5ZM3777.48,825.5c23.33,0,42-6.66,56-20,14-13.33,24.16-37,30.5-71,6.33-34,9.5-82,9.5-144s-3.17-111-9.5-145c-6.34-34-16.5-57.66-30.5-71-14-13.33-32.67-20-56-20s-42.17,6.67-56.5,20c-14.34,13.34-24.67,37-31,71-6.34,34-9.5,82.34-9.5,145s3.16,110,9.5,144c6.33,34,16.66,57.67,31,71,14.33,13.34,33.16,20,56.5,20Z" fill="#a5adcb" opacity="0" stroke="#a5adcb" stroke-miterlimit="10"/><path d="M4068.48,830.5v-10l12-4c24-8,36-24.66,36-50V231.5c0-13.33-2.67-23.5-8-30.5-5.34-7-14.67-12.16-28-15.5l-13-3v-10l183-43,12,9-4,140v342c0,24.67.16,49.17.5,73.5.33,24.34.5,48.5.5,72.5,0,13.34,2.66,24.17,8,32.5,5.33,8.34,14.33,14.5,27,18.5l13,3v10h-239Z" fill="#a5adcb" stroke="#a5adcb" stroke-miterlimit="10"/><path d="M4353.48,830.5v-10l13-3c12.66-3.33,22.66-9.16,30-17.5,7.33-8.33,11-19.16,11-32.5,0-24.66.16-49.16.5-73.5.33-24.33.5-48.83.5-73.5v-251h-56v-11l22-4c13.33-1.33,23-6,29-14s10.33-19,13-33c6.66-26,16.5-48.83,29.5-68.5,13-19.66,27.83-37.83,44.5-54.5,25.33-24,52.16-40.83,80.5-50.5,28.33-9.66,56.16-14.5,83.5-14.5s51,5.5,73,16.5,33,29.17,33,54.5c0,18-5.34,32.17-16,42.5-10.67,10.34-25.67,15.5-45,15.5-16,0-30.67-4.33-44-13-13.34-8.66-26.34-24-39-46l-14-17c-7.34-9.33-14.67-13.83-22-13.5-7.34.34-12.67,5.84-16,16.5-4.67,23.34-8.17,50.67-10.5,82-2.34,31.34-3.5,62-3.5,92h112v20h-112v396c0,25.34,13.33,41.67,40,49l25,6v10h-262Z" fill="#a5adcb" stroke="#a5adcb" stroke-miterlimit="10"/><path d="M3972.47,578.09c-2.56-19.39-3.85-29.18-6.4-48.56l39.34-46.18q-15.52-26.89-31.08-53.84l-59.67,10.98c-15.51-11.91-23.34-17.92-38.85-29.82l-4.84-60.46c-20.05-5.37-40.06-10.74-60.06-16.09l-34.42,49.94c-19.38,2.55-29.17,3.84-48.56,6.39l-46.18-39.34q-26.88,15.53-53.84,31.09l10.98,59.66c-11.9,15.51-17.92,23.35-29.82,38.86l-60.46,4.84c-5.37,20.04-10.73,40.06-16.09,60.05l49.94,34.42c2.55,19.39,3.84,29.18,6.4,48.56l-39.34,46.19q15.52,26.88,31.08,53.83l59.67-10.98c15.51,11.9,23.34,17.92,38.85,29.82l4.84,60.46c20.05,5.37,40.06,10.73,60.06,16.09l34.42-49.94c19.38-2.55,29.17-3.84,48.56-6.39l46.18,39.33q26.88-15.52,53.83-31.08l-10.97-59.66c11.9-15.51,17.91-23.35,29.82-38.86l60.45-4.84c5.37-20.04,10.74-40.06,16.1-60.05l-49.94-34.42ZM3866.41,648.31c-4.45,5.72-9.49,11.03-14.98,15.79-5.44,4.72-11.36,8.94-17.61,12.55-6.24,3.6-12.86,6.62-19.66,8.97-6.87,2.37-13.99,4.08-21.17,5.08-14.93,2.08-29.95,1.14-44.64-2.8s-28.17-10.63-40.06-19.9c-5.72-4.45-11.03-9.49-15.79-14.98-4.72-5.44-8.94-11.36-12.55-17.6-3.6-6.25-6.62-12.86-8.97-19.67-2.37-6.87-4.08-13.99-5.08-21.17-2.08-14.93-1.14-29.95,2.8-44.64,3.94-14.69,10.63-28.17,19.9-40.06,4.45-5.71,9.49-11.03,14.98-15.79,5.44-4.72,11.36-8.94,17.6-12.55h0c6.25-3.6,12.86-6.62,19.67-8.97,6.87-2.37,13.99-4.08,21.17-5.08,14.93-2.08,29.95-1.13,44.64,2.8,14.69,3.94,28.16,10.63,40.06,19.9,5.71,4.45,11.02,9.49,15.79,14.98,4.72,5.44,8.94,11.36,12.54,17.6,3.61,6.25,6.63,12.87,8.98,19.67,2.37,6.87,4.08,13.99,5.07,21.17,2.08,14.93,1.14,29.95-2.79,44.64-3.94,14.69-10.64,28.17-19.9,40.06Z" fill="#a5adcb" stroke="#a5adcb" stroke-miterlimit="10" stroke-width="20"/></svg>