<?xml version="1.0" encoding="UTF-8"?>
<svg id="Layer_2" data-name="Layer 2" xmlns="http://www.w3.org/2000/svg" viewBox="0 0 4760.96 1096">
  <defs>
    <style>
      .cls-1 {
        letter-spacing: 0em;
      }

      .cls-2 {
        stroke-width: 20px;
      }

      .cls-2, .cls-3 {
        fill: #a5adcb;
        stroke: #a5adcb;
        stroke-miterlimit: 10;
      }

      .cls-4 {
        letter-spacing: 0em;
      }

      .cls-5 {
        letter-spacing: -.08em;
      }

      .cls-6 {
        letter-spacing: 0em;
      }

      .cls-3 {
        font-family: DMSerifDisplay-Regular, 'DM Serif Display';
        font-size: 1000px;
      }

      .cls-7 {
        opacity: 0;
      }

      .cls-7, .cls-8 {
        letter-spacing: 0em;
      }

      .cls-9 {
        letter-spacing: 0em;
      }

      .cls-10 {
        letter-spacing: -.1em;
      }
    </style>
  </defs>
  <text class="cls-3" transform="translate(.5 830.5)"><tspan class="cls-4" x="0" y="0">S</tspan><tspan class="cls-9" x="511" y="0">t</tspan><tspan class="cls-8" x="869" y="0">e</tspan><tspan class="cls-1" x="1371.99" y="0">a</tspan><tspan class="cls-5" x="1887.98" y="0">m</tspan><tspan class="cls-10" x="2678.99" y="0">W</tspan><tspan class="cls-7" x="3503.98" y="0">o</tspan><tspan class="cls-6" x="4044.98" y="0">lf</tspan></text>
  <path class="cls-2" d="M3972.47,578.09c-2.56-19.39-3.85-29.18-6.4-48.56l39.34-46.18q-15.52-26.89-31.08-53.84l-59.67,10.98c-15.51-11.91-23.34-17.92-38.85-29.82l-4.84-60.46c-20.05-5.37-40.06-10.74-60.06-16.09l-34.42,49.94c-19.38,2.55-29.17,3.84-48.56,6.39l-46.18-39.34q-26.88,15.53-53.84,31.09l10.98,59.66c-11.9,15.51-17.92,23.35-29.82,38.86l-60.46,4.84c-5.37,20.04-10.73,40.06-16.09,60.05l49.94,34.42c2.55,19.39,3.84,29.18,6.4,48.56l-39.34,46.19q15.52,26.88,31.08,53.83l59.67-10.98c15.51,11.9,23.34,17.92,38.85,29.82l4.84,60.46c20.05,5.37,40.06,10.73,60.06,16.09l34.42-49.94c19.38-2.55,29.17-3.84,48.56-6.39l46.18,39.33q26.88-15.52,53.83-31.08l-10.97-59.66c11.9-15.51,17.91-23.35,29.82-38.86l60.45-4.84c5.37-20.04,10.74-40.06,16.1-60.05l-49.94-34.42ZM3866.41,648.31c-4.45,5.72-9.49,11.03-14.98,15.79-5.44,4.72-11.36,8.94-17.61,12.55-6.24,3.6-12.86,6.62-19.66,8.97-6.87,2.37-13.99,4.08-21.17,5.08-14.93,2.08-29.95,1.14-44.64-2.8s-28.17-10.63-40.06-19.9c-5.72-4.45-11.03-9.49-15.79-14.98-4.72-5.44-8.94-11.36-12.55-17.6-3.6-6.25-6.62-12.86-8.97-19.67-2.37-6.87-4.08-13.99-5.08-21.17-2.08-14.93-1.14-29.95,2.8-44.64,3.94-14.69,10.63-28.17,19.9-40.06,4.45-5.71,9.49-11.03,14.98-15.79,5.44-4.72,11.36-8.94,17.6-12.55h0c6.25-3.6,12.86-6.62,19.67-8.97,6.87-2.37,13.99-4.08,21.17-5.08,14.93-2.08,29.95-1.13,44.64,2.8,14.69,3.94,28.16,10.63,40.06,19.9,5.71,4.45,11.02,9.49,15.79,14.98,4.72,5.44,8.94,11.36,12.54,17.6,3.61,6.25,6.63,12.87,8.98,19.67,2.37,6.87,4.08,13.99,5.07,21.17,2.08,14.93,1.14,29.95-2.79,44.64-3.94,14.69-10.64,28.17-19.9,40.06Z"/>
</svg>