<?xml version="1.0" encoding="UTF-8"?><svg xmlns="http://www.w3.org/2000/svg" viewBox="0 0 2000 2500"><g id="Layer_1"><rect x=".5" y=".5" width="1999" height="2499" fill="#181926" stroke-width="0"/><path d="M1999,1v2498H1V1h1998M2000,0H0v2500h2000V0h0Z" fill="#000" stroke-width="0"/></g><g id="Layer_11"><path d="M1267.36193946373169,1161.81398983766667c-28.62452453793594,46.49921635495048-75.95703938879706,71.74878463191817-124.58120465726461,77.29037261227677-176.12201400074991,20.16633221832126-251.95404470764697-172.87206642167985-144.5392023176646-280.32857174967103,96.24834055325482-96.24836042112474,295.07834453739997-37.49936610550685,291.87007976421046,120.78959914834195-.45831218595595,25.45790283487258-6.91656427397902,56.54071952611775-22.74959331777245,82.24859998905231M998.24161196030582,1077.27374944733128c5.91657429030238,149.83077293423776,198.49662100857859,153.41406375313272,236.95431415975145,43.91591551977217,33.95777796038237-96.83168128898615-46.66590784274558-174.95535239716264-132.91442803074096-162.37225106456935-63.45724406433874,9.20818480737034-106.37316960042153,58.79067712152028-104.03988612901048,118.45631567692362M1463.44199086064327,1000.15004845495423c11.8331485805902-5.45824223644922,29.04119365375664-17.16638213515944,34.87440233228699-10.24981786117678,8.79153555942685,10.45815241910532-19.12465942875497,19.79132604049664-31.16610283150476,27.66619749227175-38.24931885750993,24.99957078103216-72.12373120611483,51.12412035977832-103.20654789736,85.37355875408321-39.95763839093888,44.12425007767706-80.99863237731915,98.99833287625006-106.24816091852335,159.08062067961509,25.74956326879692,1.33329348772349,125.87285507486558,6.54153822828266,149.99746442200922,61.70728146077454,19.33303372241789,44.24925875956978-16.12468947772504,89.83181100688489-54.99905174472042,109.45646542745817,27.6245345542593,17.24968814329986,75.41536159107636,39.37431752308476,72.70713154547957,79.08201802173608-6.58326076992125,97.62335658262418-153.99742435672124,93.37337928413399-215.74630915187845,28.95782804198643-10.16647211729651-12.04144340273888-14.91640467188336-20.08300634228544-10.41648948109287-24.0828868055014,6.29152086448812-5.58327078623734,13.5831111841544,7.74990250562769,28.16621235198545,19.83298897850182,9.37485642728097,7.79154557576112,15.70809983340587,10.45813255123176,23.83294891321384,14.74975291985538,54.20743605470489,28.45787278590979,139.1226627549604,16.79137595735665,144.91422836335732-32.99943104682643,2.66658697546882-23.08297629332264-27.66617762438545-39.79098663889454-50.70743137608224-50.16583304985943-20.74961335040825-9.33321335716028-63.08225775439496-16.08304640760252-62.24891952274447-39.66597795700363.83333823164503-23.08293655759917,21.8329689458551-18.74967311881665,42.91596527183538-27.08285675653678,22.91624506979861-9.04151318747245,41.83260967639399-37.54102904351384,41.79096660626055-46.49921635497412-.20829482215959-37.70768079554-85.91521668393216-36.99935124578769-134.20607844834194-38.33268446928014-11.45812253490294,25.24956827696769-19.62469415634769,51.08245742177314-28.83281936009371,89.91513688289888-5.79156560839874,24.29126109917706-6.29152086448266,79.04029548008839-31.16610283150658,84.54020065456825-30.70779064554881,6.83319866219972-42.2492787922165-19.87463204863525-60.62396560108391-41.29093187866965-24.74957328512755-28.74953321984867-59.83231017532671-68.20717661894741-80.91530650130699-92.62340666424643-126.37285006670572,41.74928380038182-224.66285339320348,87.12350148976839-343.99413050403928,154.6640313648204-54.62406543477664,30.9161649392172-85.95686968800146,66.24887945746195-106.03986609636377,56.41571084422321-16.49972049038115-8.08320600968-14.12475918005839-26.37452720678448-6.12489394730255-36.95766843990896,16.37472174242612-21.70796026394964,38.62433993623745-51.04081435163789,58.1656784147508-78.66534890590083,24.99957078104308-35.37435758835454,43.91591551975944-69.45714423063509,57.20736626998405-101.87325440962559,28.83283922797273-70.33212553241174,51.24912904168195-196.66329279323872,61.45728396486265-244.12085606174878,3.66659682701902-17.1663622672877,12.8747816344021-14.49973555607357,13.41643956424377-6.16655191835343,1.12497879770126,17.45802270120475-9.87483155124391,85.2902130101993-12.0831262086358,99.28995357442363-18.16635225095706,115.87303470959523-32.16611268305496,183.74686808872138-83.70692202654027,264.5371261723667,91.49844773441691-56.58236259625119,200.2049008062495-125.78952919884614,316.32795287964836-164.78886041199985-118.20675527430831-135.8310721057569-243.16294624150942-264.41221682986179-416.95166186994174-345.45249227729073-26.62454953754968-15.12475909768364-69.83214544149996-18.3746868088856-69.83214544149996-28.54119866192195,0-11.29147078287497,32.54111389390891-2.4999550913144,43.45759339986762.29166043391888,99.28997344229538,24.83291902900601,200.7049057320346,89.20682720102013,275.0369911991711,143.49754939598643,89.37345908516545,65.29057227967132,196.41331516520586,165.28885540384726,236.6209709199411,211.70470614703663,27.37451719045566-9.41649949742714,95.24839030532712-19.0413335527337,153.99742435671578-20.66632721014503,31.33283405503971-65.83221034165217,106.24816091852335-167.41380431733342,199.49661099225523-226.7461393687081,17.20804507316643-10.95814741092909,35.08277662595719-24.74957328512028,54.83239999269426-33.79108647259272M1105.36475418061309,1336.43597912713449c17.62471418898895,17.83304874690475,30.91612520346098,38.91600533713972,46.24919899117231,58.24899932379412,7.24986777802951-24.58292153309412,16.87470183335063-50.66578830593789,26.79123605835775-73.24876960743495-25.79124607468111,3.41659933109986-53.3740978230544,8.45819231961104-73.04043504953006,14.99973054789371" fill="#b8c0e0" stroke-width="0"/></g></svg>