<?xml version="1.0" encoding="UTF-8"?><svg xmlns="http://www.w3.org/2000/svg" viewBox="0 0 2000 2500"><g id="Layer_1"><rect x=".5" y=".5" width="1999" height="2499" fill="#181926" stroke-width="0"/><path d="M1999,1v2498H1V1h1998M2000,0H0v2500h2000V0h0Z" fill="#000" stroke-width="0"/></g><g id="Layer_7"><path d="M1097.18085106375474,1407.68292682926949l170.90425531901928-315h-365.26595744653241l-170.90425531901928,315h365.26595744653241ZM1499.99999999999818,1250c0,67.70832198006792-13.20682253156519,132.44049889700909-39.62053571428805,194.19642857142935-26.41371318271922,61.75592967442026-61.94196428571377,114.95535714285688-106.58482142856883,159.59821428571377-44.6428571428587,44.64285714285688-97.84228461129351,80.17110824585143-159.59821428571558,106.58482142857247-61.75592967442026,26.41371318272104-126.48810659135961,39.62053571428442-194.19642857142753,39.62053571428442s-132.44046483721104-13.20682253156338-194.19642857142753-39.62053571428442c-61.7559467043211-26.41371318272104-114.9553571428587-61.94196428571558-159.59821428571558-106.58482142857247s-80.17112953322248-97.84228461129351-106.58482142857065-159.59821428571377c-26.41369083098107-61.75592967442026-39.62053571428623-126.48810659136143-39.62053571428623-194.19642857142935s13.20684488330517-132.44046483721104,39.62053571428623-194.19642857142753c26.41369189534817-61.7559467043211,61.94196428571377-114.9553571428587,106.58482142857065-159.59821428571558s97.84226758139448-80.17112953322248,159.59821428571558-106.58482142857065c61.75596373421649-26.41369083098107,126.48810659135961-39.62053571428623,194.19642857142753-39.62053571428623s132.44049889700727,13.20684488330517,194.19642857142753,39.62053571428623c61.75592967442208,26.41369189534817,114.95535714285688,61.94196428571377,159.59821428571558,106.58482142857065,44.64285714285506,44.64285714285688,80.17110824584961,97.84226758139448,106.58482142856883,159.59821428571558,26.41371318272286,61.75596373421649,39.62053571428805,126.48810659135961,39.62053571428805,194.19642857142753" fill="#b8c0e0" stroke-width="0"/></g></svg>