<?xml version="1.0" encoding="UTF-8"?><svg xmlns="http://www.w3.org/2000/svg" viewBox="0 0 2000 2500"><g id="Layer_1"><rect x=".5" y=".5" width="1999" height="2499" fill="#181926" stroke-width="0"/><path d="M1999,1v2498H1V1h1998M2000,0H0v2500h2000V0h0Z" fill="#000" stroke-width="0"/></g><g id="Layer_10"><path d="M999.99999999999818,1199.98068966920073c-45.29166221618652-88.08334668477255-168.58333349227996-252.20833222072361-283.24999411900717-333.12499523162842-109.83333985010722-77.54167914391473-151.70833965142538-64.12501136462561-179.16667213042729-51.66667699814752-31.79166714350504,14.29166396460641-37.58333375056554,63.1249944369265-37.58333375056554,91.79165959360398,0,28.74999245006438,15.74999963243772,235.41668057441711,26.00000053644362,269.95832721391707,33.95833323399074,114.00000254311453,154.70832834641078,152.49999364216092,265.95833152532396,140.16668001809376,5.66667318344025-.83331267037283,11.43056154251281-1.61107381184775,17.29166507720947-2.33332316079395-5.74998060862345.91667970020899-11.51388883590607,1.69448057810587-17.29166507720947,2.33332316079395-162.99999753634256,24.16666348775834-307.79167016347128,83.54167143504128-117.91666348775198,294.9166297912634,208.87502034504996,216.2500222523995,286.24999523162569-46.37503623961311,325.9583314259844-179.50002352396041,39.70833619435507,133.1249872843473,85.41667461395264,386.29166285195606,322.2083250681535,179.50002352396041,177.7916749318465-179.50002352396041,48.83337020874023-270.75000603992521-114.16665712992108-294.91666952768719-5.78125317891318-.64357121785724-11.54669125874898-1.42153104146928-17.29170481364054-2.33332316079031,5.83330790201944.72224934894257,11.59723599751669,1.50001049039201,17.29170481364054,2.33332316079031,111.25000317891318,12.37499713898796,232.00003306070903-26.1666774749774,265.95830917358398-140.16668001809012,10.25001207987407-34.50000286103386,26.00002288818359-241.2499984105616,26.00002288818359-269.91667350134412,0-28.75000238419852-5.79166412353879-77.54166424275718-37.58335113525754-91.91667040188076-27.45834986368573-12.41666575274758-69.33331489562806-25.83333353203489-179.16663487752157,51.66666706401338-114.66670036315918,81.04173342387003-237.95835177103436,245.16673882803116-283.25001398722088,333.20840199788654" fill="#b8c0e0" stroke-width="0"/></g></svg>