<?xml version="1.0" encoding="UTF-8"?><svg xmlns="http://www.w3.org/2000/svg" viewBox="0 0 2000 2500"><g id="Layer_1"><rect x=".5" y=".5" width="1999" height="2499" fill="#181926" stroke-width="0"/><path d="M1999,1v2498H1V1h1998M2000,0H0v2500h2000V0h0Z" fill="#000" stroke-width="0"/></g><g id="Layer_12"><path d="M1400.23647383300158,850.01352592857984h-800.23647383300067c-54.99999523162842,0-99.50000047683716,44.99848310122252-99.50000047683716,99.9966185178555l-.49999952316557,599.97971110713024c0,54.99815925767143,45.00000476837431,99.99661851785459,100.00000000000273,99.99661851785459h800.02928063224044c54.98389565226717,0,99.97071936775683-44.98682371548966,99.97071936775683-99.97071936775683v-600.005610257228c0-54.99813541663298-44.99998092651549-99.9966185178555-100.00000000000364-99.9966185178555M1399.30410442957145,1049.93554030151972l-399.98647407141652,249.99154629465193-399.9864740714238-249.99154629465193v-99.9966185178555l399.9864740714238,249.99154629462555,399.98647407141652-249.99154629462555v99.9966185178555Z" fill="#b8c0e0" stroke-width="0"/></g></svg>