<?xml version="1.0" encoding="UTF-8"?><svg xmlns="http://www.w3.org/2000/svg" viewBox="0 0 2000 2500"><g id="Layer_1"><rect x=".5" y=".5" width="1999" height="2499" fill="#181926" stroke-width="0"/><path d="M1999,1v2498H1V1h1998M2000,0H0v2500h2000V0h0Z" fill="#000" stroke-width="0"/></g><g id="Layer_2"><path d="M999.99999997760824,762.33486034028465c-276.25000475600245,0-499.99999997760824,223.74999522157304-499.99999997760824,499.99999997751911,0,221.24999760589162,143.12499760940045,408.12504289701064,341.87498687166772,474.3750095154337,25.00000595934398,4.37498092633359,34.37501191938645-10.62500476789864,34.37501191938645-23.75000715148053,0-11.87497377342333-.62501430508382-51.24998092421629-.62501430508382-93.12498569071613-125.62499939833106,23.12499284640398-158.12499820478115-30.62498569349373-168.12500356874989-58.74997377130785-5.62499463533277-14.37497138913022-30.00000119075048-58.74997377130967-51.24999582538294-70.62500714939051-17.49999821107485-9.37497615771827-42.50000417041883-32.49996900412225-.62499940392081-33.12498330920062,39.37500715079295-.62501430507837,67.49999522860526,36.24999523000952,76.87500118864773,51.24998092421811,44.99998688495907,75.62500238077519,116.87499284220758,54.37499284499972,145.62499522510552,41.24999046139419,4.37501072864325-32.50002860878158,17.50001311223969-54.37499284500154,31.87498450136445-66.87498092350506-111.24998330571907-12.4999880785017-227.50000654632277-55.62502145518192-227.50000654632277-246.87498806797339,0-54.37499284500154,19.37499642285366-99.37500953228482,51.24999582538294-134.37500595442907-4.9999952314065-12.49998807852717-22.50000834364619-63.74999880506039,4.99999523140468-132.49999284148362,0,0,41.87500476649257-13.12500238360553,137.50001787523252,51.25001072653504,39.99999165356166-11.25000417182127,82.50001072514351-16.87499880715222,124.99999999440297-16.87499880715222,42.49995946693889,0,84.99997853852256,5.62499463533095,124.99999999439933,16.87499880715222,95.62498330641756-64.99999761290201,137.49998807291558-51.24999582537566,137.49998807291558-51.24999582537566,27.49997377272848,68.75000893760625,9.999990462813,119.99998986179708,4.9999952314065,132.50000774264117,31.87501430368684,34.99999642214425,51.24998092421993,79.37499880434916,51.24998092421993,134.37500595442907,0,191.87501072021223-116.87499284220939,234.37502979178862-228.12497614793028,246.87501787029032,18.12499761500294,15.62499999931242,33.74999761430445,45.62503099236164,33.74999761430445,92.50003099027163,0,66.87498092350324-.62501430508564,120.62501906806028-.62501430508564,137.49998807289376,0,13.12500238358189,9.37497615772008,28.75000238289249,34.37501191938827,23.75000715148235,203.56398819965398-68.6601996391073,340.62790869141099-259.54371689583058,340.62504766845814-474.37512872472689,0-276.25000475594607-223.74999522160397-499.99999997751911-499.99999997760278-499.99999997751911" fill="#b8c0e0" stroke-width="0"/></g></svg>