<?xml version="1.0" encoding="UTF-8"?><svg xmlns="http://www.w3.org/2000/svg" viewBox="0 0 2000 2500"><g id="Layer_1"><rect x=".5" y=".5" width="1999" height="2499" fill="#181926" stroke-width="0"/><path d="M1999,1v2498H1V1h1998M2000,0H0v2500h2000V0h0Z" fill="#000" stroke-width="0"/></g><g id="Layer_14"><path d="M1495.02682319223823,1122.7933370686178c-32.20794307660981-170.20611465853563-202.45574070632938-191.37250092743216-202.45574070632938-191.37250092743216h-762.44836124263111c-25.16633723045379,0-28.291298453526,33.24956039305107-28.291298453526,33.24956039305107,0,0-3.41662219270347,305.16266115784128-.91665470434327,492.57684939196952,6.83324438540149,100.99867361556971,107.74859738238138,111.33191793260812,107.74859738238138,111.33191793260812,0,0,344.45383841489183-.958350713865,498.5768031527623-2.04163113352479,101.581996796569-17.74979325723143,111.79023193600369-106.91527136797231,110.74851527978171-155.58131242629861,181.33101754066593,9.99989975538119,309.24600289669615-117.95680830774108,277.03805982008271-288.16288323037315M1034.11607798749901,1268.98874247551794c-51.91600152503361,60.54087979842734-167.12280660471697,165.66449865220056-167.12280660471697,165.66449865220056,0,0-5.04161298091003,4.95824703856124-12.91651566040491.95835071386682-3.16663426027299-2.37493595927663-4.49993303516931-3.74995744127409-4.49993303516931-3.74995744127409-18.4580858799618-18.37475967351202-140.33150404186563-127.0400005845313-168.0811374506211-164.74787064541852-29.54128592294819-40.20781519781667-43.37442959013151-112.4985245587186-3.79162054449898-154.58131847718505,39.62449201681011-42.08279391844189,125.20670483505819-45.24940831075583,181.78929180814066,16.95809495629055,0,0,65.2075049823834-74.24903415595327,144.49813225126309-40.12448899139144,79.2906272688906,34.12456503251451,76.33232839268203,125.4566834543848,30.12458923600752,179.62265149700579M1291.68615966350262,1289.22351656335195c-38.66614130294693,4.83327759683925-70.08238607857857,1.16664636201494-70.08238607857857,1.16664636201494v-236.70517584078152h73.74905704932462s82.12395670338083,22.95803878309562,82.12395670338083,109.91523334741123c0,79.70729803699942-41.04115673405977,111.12354281265198-85.79054820230522,125.62337560318974" fill="#b8c0e0" stroke-width="0"/></g></svg>