<?xml version="1.0" encoding="UTF-8"?><svg xmlns="http://www.w3.org/2000/svg" viewBox="0 0 2000 2500"><g id="Layer_1"><rect x=".5" y=".5" width="1999" height="2499" fill="#181926" stroke-width="0"/><path d="M1999,1v2498H1V1h1998M2000,0H0v2500h2000V0h0Z" fill="#000" stroke-width="0"/></g><g id="Layer_6"><path d="M499.99999999999818,821.62500172852015c0-39.5625010132735,32.87500143051238-71.62500172852015,73.43749701976958-71.62500172852015h853.12499105929965c40.56251049041748,0,73.43751192093077,32.06250071524664,73.43751192093077,71.62500172852015v856.75000399351666c0,39.56252336502439-32.87500143051329,71.6249942779632-73.43751192093077,71.6249942779632h-853.12499105929965c-40.5624955892572,0-73.43749701976958-32.06247091293881-73.43749701976958-71.6249942779632v-856.75000399351666ZM808.50047755491687,1587.63132760267399v-451.766953199618h-149.95224450811838v451.766953199618h149.95224450811838ZM733.66876950369533,1073.78223495701968c52.32361137904718,0,84.89301693669131-34.63234283936617,84.89301693669131-78.01656429899867-.93769063479158-44.32191209442408-32.50689682314442-78.01656429902687-83.89280266307651-78.01656429902687s-84.9555107668748,33.75717584343238-84.9555107668748,78.01656429902687c0,43.3842214596325,32.56940555765141,78.01656429899867,82.95511202828493,78.01656429899867h1.00018446497506ZM1040.59216809932877,1586.67627738233568v-251.76830224824153c0-13.47753542961073.9974120371553-26.95513036479133,4.98711963691494-36.56414922067052,10.78467742667453-26.89270902245698,35.40857320252871-54.78380248867234,76.80173753028066-54.78380248867234,54.17266582872435,0,75.80426604197419,41.30620755349173,75.80426604197419,101.95523599785429v241.16095845416385l150.90735434575072-.00000011172597v-258.82516573178327c0-138.65638558550745-74.10520947094301-203.11283404850656-172.99560119506532-203.11283404850656-79.73821629019585,0-115.47646072642419,43.7204647696517-135.50487635985519,74.51217382499181v1.56145155224112h-1.00140884378925l1.00140884378925-1.56145155224112v-63.38601740668946h-149.61373773522064c1.8701847266293,42.30456224448608,0,450.81190297927969,0,450.81190297927969h149.61373773522064Z" fill="#b8c0e0" stroke-width="0"/></g></svg>