<?xml version="1.0" encoding="UTF-8"?><svg xmlns="http://www.w3.org/2000/svg" viewBox="0 0 2000 2500"><g id="Layer_1"><rect x=".5" y=".5" width="1999" height="2499" fill="#181926" stroke-width="0"/><path d="M1999,1v2498H1V1h1998M2000,0H0v2500h2000V0h0Z" fill="#000" stroke-width="0"/></g><g id="Layer_13"><path d="M526.21359223300806,772.81553398058168v954.36893203883665h68.93203883495153v23.30097087378635h-95.1456310679614v-1000.97087378640936h95.1456310679614v23.30097087378635h-68.93203883495153ZM820.38834951456101,1075.72817523065532v47.57279564313103h1.37477846294951c11.99233281906254-17.65343592063073,27.92370013539767-32.27200839546822,46.53416315739014-42.69956950064989,18.03874779262333-10.21619914678013,38.99372001546544-15.22004935539917,62.48994458132802-15.22004935539917,22.49641819011958.05557447541287,43.06251281288678,4.42006967264024,61.69840305842263,13.09342594104965,18.66366154124808,8.67335626841123,32.70306464075657,24.26868743022169,42.49318138572198,46.20225271652453,10.609389833553-15.62316810834091,24.96822242883172-29.41156330326521,43.07641832575609-41.36518558474745,18.0804643312531-11.95364216501548,39.54918565979096-17.93047318929166,64.40628317572737-17.93047318929166,18.85814007132285,0,36.35528800246175,2.32122355421598,52.49156298352682,6.96369054615388,16.16408600681643,4.5868726329918,29.82851701912659,11.92584498552969,41.36834458420162,22.1003682466544,11.49811102645072,10.21619914680923,20.371735282808,23.30962508783159,26.91233231894512,39.65555962953476,6.36006374897443,16.31809759517455,9.55404086637463,36.01385074920472,9.58177243204955,59.08717992800848v238.85066469983212h-98.05825242718311v-202.23401403820208c0-11.95089545279552-.44402289343634-23.2347732437247-1.33190990223193-33.85159361495062-.71831202213252-9.56697424981576-3.26161926584791-18.90724916675026-7.49210235996543-27.51482643271265-4.14085286942827-7.86398596063009-10.47474854383836-14.35282696756076-18.2307400684349-18.67673307904806-8.10256437302996-4.58579115282373-18.99378781387531-6.89262186009728-32.67382910060587-6.92041260608494-13.8187339373344,0-24.95979468295991,2.62644416519834-33.4230234587958,7.87925297989023-8.29357440013882,5.149478129606-15.16330639123589,12.30251399014014-19.97888670055363,20.80286430052001-4.96304544869781,8.99569352122853-8.22275937762242,18.83290196354756-9.61484617118549,29.01564599026096-1.54689541902007,10.84212817890875-2.38115513217417,21.77430791675761-2.49738068482839,32.72596900730059v198.77384749302655h-98.05825242718493v-199.92347213273388c-.24808815425422-10.56127863708934-.49824462610923-21.01131477444142-1.05405954610433-31.35022768568342-.36211461310813-9.82766655526393-2.37748042922431-19.5240924059126-5.96153247446273-28.68211728040842-3.39532147119098-8.64892544310351-9.45461852993685-15.99307734944887-17.30099175740179-20.96964853436657-8.08770345381345-5.21114257461522-19.84402392674565-7.92091921996325-35.60252988651155-7.92091921996325-4.66916339082854,0-10.76968935315381,1.02833711770472-18.3015381291134,3.08501135314327-7.5040580299592,2.12613122147195-15.008076302056,5.9615324744409-22.09523338415966,11.75632047293402-7.90923040833331,6.76734483485961-14.16882757915846,15.25131490579406-18.30153812911249,24.80504978733552-5.00271197961774,10.83918609710054-7.504038151028,25.01350026131331-7.59616892614395,42.52290273476865v207.64797429138162h-98.05825242718493v-357.28155339805744l93.20388349514542.00001989084922ZM1473.78640776698921,1727.18446601941832v-954.36893203883665h-68.93203883495153v-23.30097087378635h95.14563106796049v1000.97087378640936h-95.14563106796049v-23.30097087378635h68.93203883495153Z" fill="#b8c0e0" stroke-width="0"/></g></svg>