<?xml version="1.0" encoding="UTF-8"?><svg xmlns="http://www.w3.org/2000/svg" viewBox="0 0 2000 2500"><g id="Layer_1"><rect x=".5" y=".5" width="1999" height="2499" fill="#181926" stroke-width="0"/><path d="M1999,1v2498H1V1h1998M2000,0H0v2500h2000V0h0Z" fill="#000" stroke-width="0"/></g><g id="Layer_15"><path d="M1386.73204026275926,934.54906138001934c8.82299094455993-78.7452590401972-6.83785479445032-134.69779147359077-51.61452156728774-185.72413818622044-53.67328256136534-61.09927276864346-150.43217440794615-87.27417132226037-274.39530586330875-87.27417132226037h-359.68428844627942c-25.29406056173593.01095328756946-46.83097521682157,18.39993535081976-50.80577018601889,43.37974491928799l-149.84394696407435,949.86939499914297c-2.68004949882925,16.84291013870097,8.80123655613897,32.66944683605652,25.6441817542518,35.349461275473,1.61021039705429.25621445700381,3.23821346473414.38453204220968,4.86868822360157.38369061542835h202.54615147260756l-14.8948657294477,94.38322195409637c-3.99092742280845,25.2612000302197,13.25206180740224,48.97477560492189,38.51326183758647,52.96570302773034,2.3827565907377.37642828564094,4.79128582610792.56615432981926,7.20361239520116.56727946576393h187.05169206571827c31.55258801181117,0,58.32451062750988-22.80027455719392,63.39942153525772-53.76444168769558l1.83870127343835-9.56140093418071,35.30356947208202-223.81015034743723,2.20645555651754-12.06203186037055.07357891339961-.51484196790261c1.93332277407899-12.62155425522542,12.82657919693156-21.91830958385071,25.59508085306334-21.84409939282887h27.94869423638011c93.11323813167655,0,178.35675905973221-18.82855635671513,246.02200402318886-66.92973639729098,27.94869423637283-19.76018183603992,52.29342455536607-44.39915766666127,73.03433124087678-73.91692749191134,34.32677257218893-47.77971944947967,56.53757411870174-103.18050286326798,64.72328084078072-161.44041274794654,17.79887242088262-91.64229114137561,9.56140093417707-173.28184815206441-41.92300628359044-231.97411306267531-15.88420740749461-17.69457133014475-34.81720513890286-32.39255548820074-55.89738847275657-43.39400588045646l-6.913612181188-4.48650756193638v-.20151741580958ZM833.98872053267223,1310.47241204214151c7.28963153312907-3.79222091489828,15.38138544539652-5.78361013411813,23.59835486060183-5.80772778977007h106.06449155766677c207.04724949556839,0,369.08742087065912-83.99364897641135,416.44401135131557-327.16404708953814l.22028210058124-1.17472117020225c15.9568684628648,9.1042116037188,29.36837935407129,19.82367356893701,40.23474273284592,32.15842090555634,40.0878413192986,45.74130510931627,49.852864214894,112.70125204849137,33.03944427827082,198.97096267832057-19.97053997261173,102.56918567825414-63.58261482229864,169.38230122360073-122.09916144960334,211.01204722728289-58.88366012169536,41.84995808454187-135.24151646203063,59.83809919140549-223.42017525076517,59.83809919140549h-28.11543876930773c-31.58801307230715-.13414211724194-58.54980689317017,22.79749491440998-63.48745755584969,53.99746402736673l-2.20696055493681,12.06479253552061-35.3116495110462,223.86137448007321-1.76559650715535,9.5635892820701-.07359575363262.29424269855917c-1.96652905092378,12.59511694138382-12.85343873822421,21.85527282545809-25.60093887970834,21.77550316682573h-187.2127005244829c-4.30370451047656.01514364427203-7.80479587557511-3.46151457259111-7.81990446509371-7.76518402829788-.00150735347506-.42780795017461.03221529876737-.85491480565543.10081740942314-1.27718410810121l15.29115456506042-97.03991149445028,62.12028036581614-383.30772051262102Z" fill="#b8c0e0" stroke-width="0"/></g></svg>