<?xml version="1.0" encoding="UTF-8"?><svg xmlns="http://www.w3.org/2000/svg" viewBox="0 0 2000 2500"><g id="Layer_1"><rect x=".5" y=".5" width="1999" height="2499" fill="#181926" stroke-width="0"/><path d="M1999,1v2498H1V1h1998M2000,0H0v2500h2000V0h0Z" fill="#000" stroke-width="0"/></g><g id="Layer_5"><path d="M885.43748855590547,1250c-28.64977717399324,0-51.87499523162842,23.22524785995483-51.87499523162842,51.87499523162842,0,28.68747711181641,23.25001358985901,52.50000953675226,51.87499523162842,51.93752050398871,28.66703271866299-.99474191665649,51.09986662865231-25.04032850264593,50.10512471199581-53.70736122129529-.9462833404541-27.27073431015015-22.83439040184476-49.15887117386774-50.10512471199581-50.10515451432184M1000.36745406824048,1477.93751955032531c19.68747377395994,0,87.68749237060729-2.37500667572021,123.49998950958434-38.18750381469908,4.85587120056152-5.45030832291377,4.85587120056152-13.67467641831172,0-19.12498474120002-5.11515140533447-5.2812099456969-13.54306936264402-5.41585683824451-18.82433891296751-.30064582825798-.10180473327091.09858608246941-.20205974578857.1988410949707-.30064582824161.30064582825798-22.06248044967833,22.68749475478035-70.37502527237484,30.43752908706665-104.37500476837522,30.43752908706665-34.0625047683734,0-81.75000548362459-7.74997472763062-104.4375002384204-30.43746948244006-5.11515140533447-5.28120994567143-13.54309916496277-5.41585683821904-18.82430911063966-.30070543288457-.10183453559875.098645687096-.20208954810823.19890069962639-.30070543288912.30070543288457-5.28120994568326,5.11515140533447-5.41582703590393,13.54306936264766-.30067563056946,18.82433891297114.09861588478088.10180473328728.19887089729036.20205974578857.30067563056946.30064582825798,35.25000810622714,35.18748283385321,103.24999690055392,38.12497854230969,123.56251478194918,38.12497854230969v.0624656677337ZM1062.62499094009581,1302.65091863516864c0,28.62501144408088,23.31250905990601,51.87499523162842,51.93752050399416,51.87499523162842,28.62501144408998,0,51.87499523162842-23.81247282028198,51.87499523162842-51.87499523162842-1.40678882599059-28.64974737167358-25.77251195907775-50.73451995849609-54.42225933074405-49.32773113252733-26.68142318725768,1.31016969680786-48.01756143570492,22.64630794526056-49.32773113251278,49.32773113252733h-.06252527236575Z" fill="#b8c0e0" stroke-width="0"/><path d="M1499.99999999999818,1250c0,276.14235877990905-223.85764122009095,499.99999999999272-500,499.99999999999272-276.14237368106478,0-500-223.85764122008368-500-499.99999999999272,0-276.14237368107933,223.85762631893522-499.99999999999272,500-499.99999999999272,276.14235877990905,0,500,223.85762631891339,500,499.99999999999272M1260.74999570846194,1177.18750238418579c-19.68747377395084,0-37.62501478194645,7.75000452994391-50.75001716613588,20.31248807906195-50.06247758864993-35.81249713897705-118.74997615814209-59.06251072883697-195.06251811981019-62.06250190734045l33.37502479553041-156.312495470057,108.62499475479126,23.25001358985992c1.34623050689515,28.61812710763843,25.63709020614624,50.72638392448425,54.25524711609251,49.38018321990967,28.61809730529785-1.34623050688788,50.72635412215641-25.63712000845953,49.38012361526307-54.25524711607068-1.30063295364198-27.64934301377252-24.08045530319032-49.40685629846575-51.76037549972716-49.43743348123553-19.81419324874878.06921589375452-37.85824775695437,11.41950488090515-46.50002717971802,29.24999594689416l-121.1249828338623-25.62500536440893c-3.29303741455078-.73079764844897-6.74170255660647-.09967386724475-9.56249237060183,1.75000727176666-2.87359952926818,1.92742049693061-4.8196911811865,4.95973229406354-5.37502765655699,8.37500393389655l-37.00000047683716,174.24999177456993c-77.49998569488707,2.37500667572021-147.37498760223207,25.62499046323865-198.12500476837431,62.00000643729254-13.12500238418124-12.49998807907104-30.99998831748962-20.24999260901495-50.62499642372131-20.24999260901495-40.14416038989839-.05927681922913-72.73547351360412,32.43595361709595-72.79473543166932,72.58009910581677-.04233419895172,28.66625785828546,16.76754653453554,54.68016862871082,42.91974008083616,66.41989946365356-1.2499988079071,7.08335638046265-1.85415148735592,14.43749666214899-1.81250274181366,22.06248044968561,0,112.18750476837158,130.68750500679016,203.4999728202929,291.81250929832095,203.4999728202929s291.75001382828123-90.68751335145134,291.75001382828123-203.50003242494677c0-7.12502002716064-.62501430511657-14.87499475479126-1.81251764297667-22.06248044965832,25.06250143050966-11.31248474121094,42.99998283386412-37.00000047683716,42.99998283386412-66.81251525880725,0-40.62500596046448-32.81247615814573-72.81249761581421-72.81249761581421-72.81249761581421" fill="#b8c0e0" stroke-width="0"/></g></svg>