<?xml version="1.0" encoding="UTF-8"?><svg xmlns="http://www.w3.org/2000/svg" viewBox="0 0 2000 2500"><g id="Layer_1"><rect x=".5" y=".5" width="1999" height="2499" fill="#181926" stroke-width="0"/><path d="M1999,1v2498H1V1h1998M2000,0H0v2500h2000V0h0Z" fill="#000" stroke-width="0"/></g><g id="Layer_8"><path d="M1299.38977879481172,750h-602.94455946629932c-108.4936988123045,0-196.44521932851421,87.95152051620971-196.44521932851421,196.44521932851421v602.64489726732245c0,110.50043587228902,90.40944753187341,200.90988340416334,200.90988340416334,200.90988340416334h598.18023319167514c110.5004358722872,0,200.90988340416152-90.40944753187432,200.90988340416152-200.90988340416152v-602.66154516726783c0-109.79911259242544-91.09374455043144-196.42857142857065-200.89285714285688-196.42857142857065M1178.87109077040259,1563.11975591151713h-116.00070410131229c-94.99045301899969,0-160.88716775223475-52.91398547219796-160.88716775223475-169.82534373838826v-178.76351972461634h-80.09153318077824v-107.26544622425718c94.78259644779519-24.58166475972484,129.20846588236873-107.98056556649226,133.77926421404754-178.77574370709317h98.10479375696741v160.94584286804002h115.94202898550793v125.09534706331033h-115.94202898550793l-.87123246082228,156.65860617655744c0,49.09947677134551,24.57230031600739,66.07213371665421,63.93264682383597,66.07213371665421l62.03393270029665.13469818894373v125.72342538084922Z" fill="#b8c0e0" stroke-width="0"/></g></svg>