<?xml version="1.0" encoding="UTF-8"?><svg xmlns="http://www.w3.org/2000/svg" viewBox="0 0 2000 2500"><g id="Layer_1"><rect x=".5" y=".5" width="1999" height="2499" fill="#181926" stroke-width="0"/><path d="M1999,1v2498H1V1h1998M2000,0H0v2500h2000V0h0Z" fill="#000" stroke-width="0"/></g><g id="Layer_3"><path d="M814.12500143050966,1656.27183932885237c377.37500667572021,0,583.81247520446414-312.68751621247065,583.81247520446414-583.37497711182186.08332729339963-8.79168510434556-.04166364669436-17.58334040641148-.37497282028198-26.37499570845011,40.17806053161985-29.10974621772766,74.86313581466675-65.12808799744835,102.43749618530637-106.37502372265772-37.55569458008176,16.51702821254094-77.3348212242181,27.42522954942615-118.06249618530273,32.37499296664919,42.91212558746156-25.64327418802077,75.05035400390443-65.99922478198368,90.43753147125062-113.56249451636359-40.29530286789304,23.92005920409611-84.42527055739993,40.6881719827652-130.43749332427615,49.56249892710457-77.64124870300839-82.68722891805737-207.61317014694214-86.777806282028-290.30036926269895-9.13655757901961-53.3969402313196,50.13839900493622-76.04923844337281,124.92050230501809-59.44967269897461,196.26156985758735-164.99048471450624-8.2335174083737-318.72561573981784-86.13479137420927-422.93751239775975-214.31249380110421-54.2709836736376,93.79503130912508-26.43620222807567,213.61035108564738,63.62500786780947,273.87499809265046-32.53693133592242-1.05133652688892-64.36292082071122-9.78955626488914-92.87499636411849-25.50002932548523v2.81250476834794c.16401708126068,97.58150577547531,68.88987869024459,181.60879611970631,164.49999064207441,201.12496614458541-17.60810613632475,4.85318899154663-35.79801321030118,7.27146863937378-54.062500596051,7.18748569487434-12.88007199763706.13375282286506-25.73966234922227-1.06000900268555-38.37500512599399-3.56251001358032,26.83253586292267,83.58818292618525,103.91096770763124,140.81269502640134,191.68749451636813,142.31246709824336-72.74354994296846,57.06059932706921-162.54712641238984,88.02968263625371-254.99998033046177,87.93759346006846-16.29384607077191.12260675431389-32.57836028934162-.816881656654-48.7499982118652-2.81250476837522,93.83886307478042,59.84181165697373,202.82912254333678,91.61072969437373,314.12500143051147,91.5625095367468" fill="#b8c0e0" stroke-width="0"/></g></svg>