<?xml version="1.0" encoding="UTF-8"?><svg xmlns="http://www.w3.org/2000/svg" viewBox="0 0 2000 2500"><g id="Layer_1"><rect x=".5" y=".5" width="1999" height="2499" fill="#181926" stroke-width="0"/><path d="M1999,1v2498H1V1h1998M2000,0H0v2500h2000V0h0Z" fill="#000" stroke-width="0"/></g><g id="Layer_4"><path d="M1002.94100511835313,899.12280701754389h5.84070779834292c51.37823778479651.18753453110457,311.70692188425164,2.06295436410801,381.89887095200538,20.94203660717812,43.18327980601498,11.72558444739934,76.87160280752869,45.53818336657423,88.44301699630887,88.76924114267058,6.31288347178634,23.75515890448696,10.75066661524579,55.19946460227948,13.75087482726303,87.64400414728516l.62505331222928,6.50141567601713,1.37510536523769,16.25350938125666.50005457145744,6.50141567601713c4.06272731277568,57.13739346157854,4.56278188422948,110.64899511854765,4.62531105880043,122.33901768310989v4.68850486930751c-.06252917457095,12.12764536624309-.62505331222928,69.26500901903637-5.12530602189145,128.777954141593l-.50005457145926,6.56389489355206-.5625241376656,6.50141567601531c-3.12520695278727,35.75778621809513-7.75045840322491,71.26547671341541-14.68839518724053,97.39609785252469-11.57135458041921,43.23108758488343-45.25973719029571,77.04367159966569-88.44301699631069,88.76925604706412-72.50451518460795,19.5042470280514-348.08423782569662,20.87950522427127-386.27412492089206,20.94204405937489h-8.87556628691709c-19.31370624604642,0-99.19368361156012-.37505415781561-182.94891998286585-3.25070783800948l-10.62566787447395-.37505415781561-5.43783267800427-.25003610520253-10.68816724485805-.43759299291924-10.68816724485896-.43759299289559c-69.37933803599572-3.06315095031277-135.44595610595206-8.00175154241879-165.88535499374029-16.25353919004192-43.16744633414328-11.7143763435015-76.85234185468835-45.49971512697266-88.44301699631615-88.70671721198232-6.9379330584934-26.06814192160164-11.56322176415779-61.63837125200189-14.6884166089967-97.39609785252651l-.50011697396894-6.56395451111894-.50003128693788-6.50141567601895c-3.10247940098816-42.35822668446781-4.81184280427624-84.80701246379795-5.12531999260227-127.27758846640427v-7.86400342633806s.25385641339108-59.88986468924486,3.62969385652923-111.15255924221765l.43760848628881-6.43910721066277.18754642757631-3.25080909200369.5001241174059-6.50161818400647,1.3753410899717-16.25404546001573.62515491386512-6.50161818400647c3.00074423864226-32.44555013697482,7.4393456641501-63.95334624452971,13.75341043392291-87.6467341082589,11.57353260410855-43.23241925453476,45.26810981949166-77.04605647353401,88.459436381253-88.77202105773449,30.44505739357646-8.1270227299965,96.52394068548256-13.12825831470127,165.91614404274878-16.25403055515926l10.62764052236616-.43760662316981,10.75266246906722-.3750956498252,5.37633123453634-.18754782491305,10.69015149570987-.4376066231689c59.49655530325617-1.91274039346536,119.01737571490776-2.97559089388233,178.54427730851421-3.90052950460449l12.0654823385994.83542188805404ZM899.33166248955604,1099.61193676109815v301.19972012916423l259.87695596252343-150.53733418636875-259.87695596252343-150.66238594279548Z" fill="#b8c0e0" stroke-width="0"/></g></svg>